<svg width="984" height="431" viewBox="0 0 984 431" fill="none" xmlns="http://www.w3.org/2000/svg">
<g filter="url(#filter0_i_3631_36793)">
<path d="M964.629 83.8231H877.497C877.497 83.8231 858.126 83.8231 858.126 60.3103V24.2417C858.126 24.2417 858.126 0.728891 838.755 0.728891H567.359C567.359 0.728891 567.213 0.728898 567.213 0.552552C567.213 0.552552 567.213 0.376213 567.068 0.376213H310.088C310.088 0.376213 309.933 0.376209 309.933 0.188107C309.933 0.188107 309.933 0 309.778 0H48.427C48.427 0 29.0562 0 29.0562 23.5128V48.4834C29.0562 48.4834 29.0562 71.9961 48.427 71.9961H94.946C94.946 71.9961 110.414 71.9961 110.414 90.7711C110.414 90.7711 110.414 109.546 94.946 109.546H19.3708C19.3708 109.546 0 109.546 0 133.059V189.348C0 189.348 0 202.281 10.6539 202.281H21.0367C21.0367 202.281 21.3079 202.28 21.3079 202.61C21.3079 202.61 21.3079 202.939 21.5791 202.939H139.169C139.169 202.939 139.47 202.939 139.47 203.303C139.47 203.303 139.47 203.668 139.77 203.668H334.957C334.957 203.668 348.674 203.668 348.674 220.318C348.674 220.318 348.674 236.969 334.957 236.969H210.166C210.166 236.969 190.795 236.969 190.795 260.482V328.623C190.795 328.623 190.795 352.135 210.166 352.135H380.777C380.777 352.135 400.148 352.135 400.148 375.648V407.487C400.148 407.487 400.148 431 419.518 431H671.601C671.601 431 690.972 431 690.972 407.487V378.485C690.972 378.485 690.972 354.973 710.343 354.973H715.751C715.751 354.973 730.279 354.973 730.279 372.607C730.279 372.607 730.279 390.242 744.807 390.242H900.742C900.742 390.242 920.113 390.242 920.113 366.729V257.818C920.113 257.818 920.113 234.305 900.742 234.305H870.407C870.407 234.305 858.126 234.305 858.126 219.398C858.126 219.398 858.126 204.491 870.407 204.491H964.629C964.629 204.491 984 204.491 984 180.978V107.336C984 107.336 984 83.8231 964.629 83.8231Z" fill="url(#paint0_linear_3631_36793)"/>
</g>
<defs>
<filter id="filter0_i_3631_36793" x="0" y="0" width="984" height="435" filterUnits="userSpaceOnUse" color-interpolation-filters="sRGB">
<feFlood flood-opacity="0" result="BackgroundImageFix"/>
<feBlend mode="normal" in="SourceGraphic" in2="BackgroundImageFix" result="shape"/>
<feColorMatrix in="SourceAlpha" type="matrix" values="0 0 0 0 0 0 0 0 0 0 0 0 0 0 0 0 0 0 127 0" result="hardAlpha"/>
<feOffset dy="8"/>
<feGaussianBlur stdDeviation="2"/>
<feComposite in2="hardAlpha" operator="arithmetic" k2="-1" k3="1"/>
<feColorMatrix type="matrix" values="0 0 0 0 0 0 0 0 0 0 0 0 0 0 0 0 0 0 0.25 0"/>
<feBlend mode="normal" in2="shape" result="effect1_innerShadow_3631_36793"/>
</filter>
<linearGradient id="paint0_linear_3631_36793" x1="984" y1="216" x2="118.5" y2="216" gradientUnits="userSpaceOnUse">
<stop stop-color="#98C05A"/>
<stop offset="1" stop-color="#2CBE98"/>
</linearGradient>
</defs>
</svg>
