<svg width="495" height="490" viewBox="0 0 495 490" fill="none" xmlns="http://www.w3.org/2000/svg">
<mask id="mask0_3629_36651" style="mask-type:luminance" maskUnits="userSpaceOnUse" x="0" y="68" width="443" height="421">
<path d="M0.0878906 68H442.666V488.177H0.0878906V68Z" fill="white"/>
</mask>
<g mask="url(#mask0_3629_36651)">
<path d="M270.208 488.178C261.599 488.178 252.885 487.673 244.094 486.673C223.016 484.266 201.766 478.99 180.937 470.985C160.057 462.964 139.937 452.381 121.141 439.532C102.115 426.527 84.7395 411.542 69.4999 395.001C54.0468 378.23 40.8489 360.094 30.2655 341.115C19.6666 322.105 11.7135 302.292 6.62492 282.23C3.63013 270.423 1.64055 258.423 0.708255 246.558C-1.17195 222.605 1.28117 199.74 7.99992 178.594C14.2499 158.938 24.5155 140.454 37.6926 125.157C53.9426 106.282 75.2187 91.2246 99.2343 81.6153C118.797 73.7819 140.016 69.3288 162.307 68.3913C182.646 67.5319 203.682 69.5007 224.838 74.2559C244.682 78.709 264.443 85.6621 283.568 94.9226C301.844 103.766 319.349 114.615 335.599 127.167C351.995 139.834 367.026 154.1 380.276 169.553C394.042 185.605 405.812 202.902 415.266 220.943C425.266 240.027 432.615 259.725 437.13 279.495C441.958 300.662 443.495 321.454 441.698 341.282C439.318 367.469 431.141 392.313 418.052 413.12C406.703 431.162 392 446.376 374.354 458.344C356.286 470.589 335.474 479.204 312.479 483.954C298.807 486.777 284.667 488.188 270.213 488.188L270.208 488.178ZM1.01034 246.532C1.94263 258.376 3.927 270.36 6.9218 282.152C11.9999 302.188 19.9478 321.975 30.5312 340.964C41.1093 359.928 54.2916 378.037 69.7291 394.792C84.953 411.318 102.307 426.287 121.318 439.277C140.094 452.11 160.193 462.683 181.052 470.699C201.859 478.693 223.083 483.964 244.135 486.365C267.672 489.053 290.646 488.131 312.422 483.636C335.375 478.897 356.156 470.298 374.182 458.079C391.797 446.141 406.469 430.954 417.797 412.949C430.859 392.178 439.021 367.386 441.396 341.245C443.193 321.443 441.661 300.693 436.838 279.553C432.333 259.808 424.984 240.131 415 221.079C405.562 203.058 393.802 185.782 380.052 169.745C366.818 154.303 351.802 140.058 335.422 127.407C319.187 114.865 301.703 104.027 283.443 95.1934C264.344 85.9434 244.604 79.0007 224.781 74.5476C203.656 69.808 182.641 67.834 162.328 68.6934C140.078 69.6361 118.891 74.0736 99.3593 81.8913C75.3958 91.4903 54.1562 106.516 37.9322 125.35C24.7864 140.615 14.5416 159.058 8.302 178.683C1.58325 199.792 -0.869871 222.62 1.01034 246.532Z" fill="white"/>
<path d="M270.161 488.162C250.422 488.162 230.302 485.547 210.312 480.375C189.12 474.891 168.354 466.75 148.578 456.162C128.786 445.568 110.073 432.651 92.9581 417.771C75.9112 402.954 60.5987 386.23 47.4476 368.073C34.281 349.891 23.5883 330.464 15.6664 310.323C7.41119 289.344 2.29661 266.891 0.463274 243.579C-0.161726 230.75 0.135149 219.506 1.37994 209.204C3.9789 187.61 10.7914 166.693 21.0674 148.724C32.432 128.86 48.4685 111.511 67.432 98.5525C86.7758 85.3389 109.828 76.0004 134.099 71.5473C153.521 67.99 174.041 67.2608 195.093 69.3754C215.567 71.4327 236.213 76.1827 256.463 83.4848C275.515 90.3546 294.073 99.4275 311.63 110.459C329.047 121.396 345.385 134.141 360.198 148.318C375.265 162.74 388.666 178.594 400.031 195.448C411.963 213.141 421.562 231.776 428.573 250.844C435.942 270.901 440.427 291.073 441.901 310.808C443.698 334.875 440.823 358.886 433.578 380.24C425.896 402.891 413.125 423.542 396.646 439.969C382.12 454.448 364 466.334 344.25 474.344C322.802 483.042 299.198 487.677 274.099 488.12C272.791 488.141 271.484 488.151 270.172 488.151L270.161 488.162ZM0.775774 243.563C2.59869 266.839 7.70807 289.266 15.9529 310.214C23.8695 330.329 34.5518 349.74 47.7029 367.896C60.8383 386.037 76.1299 402.735 93.1612 417.542C110.26 432.407 128.953 445.308 148.724 455.891C168.474 466.464 189.224 474.599 210.39 480.073C231.682 485.584 253.12 488.193 274.088 487.818C299.151 487.375 322.718 482.745 344.135 474.063C363.843 466.068 381.927 454.204 396.427 439.756C412.87 423.365 425.614 402.756 433.281 380.151C440.51 358.834 443.385 334.865 441.593 310.839C440.125 291.131 435.646 270.99 428.281 250.959C421.286 231.912 411.692 213.302 399.776 195.631C388.427 178.797 375.041 162.954 359.989 148.547C345.192 134.381 328.87 121.657 311.474 110.724C293.937 99.7087 275.396 90.641 256.364 83.7817C236.14 76.4848 215.515 71.7452 195.073 69.6879C174.047 67.5733 153.552 68.3025 134.161 71.8598C109.932 76.3025 86.9216 85.6202 67.6091 98.8129C48.682 111.74 32.682 129.052 21.3435 148.881C11.0831 166.813 4.28619 187.688 1.69244 209.24C0.452858 219.526 0.155983 230.756 0.780983 243.563H0.775774Z" fill="white"/>
</g>
<path d="M383.094 238.729C366.333 238.729 349.927 235.13 337.052 230.297C315.297 222.12 294.484 209.786 276.864 194.625C258.411 178.755 243.51 159.76 233.765 139.693C225.323 122.323 216.541 96.4895 222.63 72.0624C225.489 60.5832 230.854 50.6353 238.573 42.4999C246.25 34.4061 255.901 28.4686 267.265 24.8541C287.807 18.328 310.745 18.9843 335.448 26.8176C361.948 35.2186 383.078 49.5051 396.135 60.0155C401.14 64.0416 405.838 68.2968 409.364 71.5572C421.64 83.7551 438.536 103.318 449.307 127.271C460.083 151.234 462.021 173.656 455.057 193.911C449.255 210.781 438.166 223.172 422.088 230.734C409.932 236.453 396.39 238.724 383.078 238.724L383.094 238.729ZM296.693 20.7134C286.463 20.7134 276.666 22.1926 267.364 25.1509C256.047 28.7499 246.437 34.6561 238.797 42.7134C231.114 50.8072 225.776 60.7082 222.927 72.1353C216.859 96.4686 225.62 122.234 234.036 139.557C243.76 159.583 258.64 178.547 277.057 194.391C294.651 209.531 315.432 221.844 337.151 230.005C360.203 238.672 394.594 243.338 421.969 230.458C437.963 222.937 449 210.604 454.771 193.812C461.708 173.63 459.776 151.286 449.031 127.401C438.276 103.484 421.411 83.9582 409.156 71.7863C405.625 68.5311 400.943 64.2759 395.943 60.2499C382.901 49.7603 361.807 35.4947 335.354 27.1093C321.911 22.8436 308.984 20.7082 296.693 20.7082V20.7134Z" fill="white"/>
<path d="M377.933 297.599C358.995 297.599 339.042 294.042 319.495 287.037C289.667 276.339 262.495 260.547 238.735 240.099C214.219 219 194.068 193.333 180.459 165.87C173.506 151.839 168.469 136.823 165.902 122.448C163.001 106.229 163.136 90.8908 166.303 76.8647C169.813 61.3283 176.849 47.6772 187.209 36.2814C197.381 25.0991 210.256 16.6304 225.469 11.1147C238.85 6.26057 253.99 4.04182 270.448 4.51057C284.912 4.92203 300.073 7.37516 315.495 11.8022C344.797 20.2137 372.657 34.5314 396.053 53.2085C422.683 74.4689 443.803 98.4377 458.829 124.458C462.464 130.766 465.579 137.464 468.589 143.943L469.105 145.047C482.719 175.807 485.438 208.766 476.568 235.458C471.719 250.068 463.225 262.682 451.334 272.953C440.126 282.636 426.167 289.792 410.954 293.651C400.542 296.292 389.422 297.604 377.928 297.604L377.933 297.599ZM266.178 4.75016C251.402 4.75016 237.761 6.98453 225.584 11.4012C210.412 16.9012 197.579 25.3387 187.443 36.4845C177.115 47.8387 170.105 61.4481 166.61 76.9324C163.448 90.9168 163.313 106.214 166.204 122.391C168.766 136.735 173.797 151.724 180.735 165.735C194.329 193.156 214.454 218.792 238.938 239.865C262.667 260.292 289.808 276.063 319.6 286.75C350.938 297.99 383.355 300.328 410.876 293.349C426.042 289.505 439.959 282.37 451.126 272.724C462.98 262.485 471.438 249.912 476.271 235.36C485.12 208.74 482.396 175.865 468.818 145.172L468.308 144.073C465.303 137.599 462.193 130.901 458.558 124.61C443.558 98.6252 422.464 74.6824 395.86 53.4481C372.495 34.7918 344.678 20.4949 315.412 12.0939C300.006 7.67203 284.876 5.22411 270.438 4.81266C269.001 4.77099 267.579 4.75016 266.162 4.75016H266.178Z" fill="white"/>
<mask id="mask1_3629_36651" style="mask-type:luminance" maskUnits="userSpaceOnUse" x="122" y="0" width="370" height="342">
<path d="M122.666 0.160156H491.999V341.332H122.666V0.160156Z" fill="white"/>
</mask>
<g mask="url(#mask1_3629_36651)">
<path d="M368.813 340.515C339.302 340.515 308.287 333.515 278.125 319.947C245.287 305.176 214.474 283.306 189.042 256.713C176.261 243.348 165.068 229.129 155.776 214.447C145.854 198.77 138.047 182.473 132.568 166.009C119.672 127.254 120.662 89.9209 135.349 60.8948C143.235 45.3011 154.729 32.2594 169.5 22.1344C183.469 12.5615 199.667 6.03025 217.656 2.72296C250.115 -3.24579 287.771 1.30629 323.682 15.5511C357.276 28.874 387.88 48.275 414.63 73.2073C421.188 79.3219 427.36 85.8792 432.526 91.4886C457.828 120.171 475.453 151.228 484.901 183.817C495.807 221.41 492.375 258.994 475.49 286.937C466.255 302.218 453.302 314.66 437 323.916C421.823 332.53 404.078 338.004 385.682 339.733C380.125 340.254 374.495 340.515 368.813 340.515ZM246.708 0.467753C236.724 0.467753 227.011 1.3115 217.714 3.01984C199.771 6.32192 183.61 12.8323 169.677 22.3844C154.948 32.4834 143.49 45.4834 135.63 61.0303C120.974 89.9834 119.995 127.233 132.865 165.91C138.333 182.353 146.13 198.624 156.042 214.28C165.323 228.947 176.5 243.15 189.266 256.499C214.677 283.067 245.448 304.91 278.261 319.671C314.177 335.827 351.318 342.66 385.656 339.426C404.011 337.702 421.719 332.244 436.854 323.645C453.11 314.416 466.026 302.009 475.229 286.775C492.073 258.91 495.495 221.41 484.61 183.9C475.172 151.358 457.573 120.338 432.297 91.6969C427.136 86.0928 420.974 79.5407 414.422 73.4365C387.693 48.525 357.125 29.15 323.568 15.8375C297.995 5.69171 271.542 0.467753 246.708 0.467753Z" fill="white"/>
</g>
<mask id="mask2_3629_36651" style="mask-type:luminance" maskUnits="userSpaceOnUse" x="92" y="1" width="402" height="374">
<path d="M92 1.33203H493.911V374.665H92V1.33203Z" fill="white"/>
</mask>
<g mask="url(#mask2_3629_36651)">
<path d="M356.541 374.625C355.598 374.625 354.65 374.62 353.697 374.609C334.63 374.328 314.843 371.276 294.9 365.536C257.942 354.906 221.874 335.693 190.593 309.979C174.64 296.864 160.202 282.463 147.682 267.177C134.557 251.156 123.468 234.067 114.713 216.38C101.281 189.234 86.9472 147.562 94.942 103.187C102.13 63.2862 128.708 29.9321 166.041 13.9633C207.536 -3.79711 251.187 0.765394 280.505 7.71852C299.02 12.1091 317.536 18.7654 335.541 27.505C352.718 35.8435 369.52 46.1091 385.463 58.0206C392.531 63.3018 399.921 69.3852 408.046 76.6091C438.786 105.276 461.921 136.937 476.796 170.703C494.218 210.255 498.51 250.614 488.874 284.344C477.999 322.416 450.088 351.979 412.291 365.453C395.192 371.547 376.452 374.625 356.541 374.625ZM229.874 1.86956C209.577 1.86956 187.583 5.07789 166.161 14.2394C128.921 30.1716 102.411 63.4425 95.2389 103.245C87.2597 147.531 101.577 189.135 114.984 216.239C123.723 233.901 134.807 250.974 147.916 266.979C160.421 282.25 174.848 296.64 190.786 309.739C222.036 335.432 258.067 354.62 294.978 365.239C314.9 370.974 334.656 374.021 353.697 374.297C374.645 374.604 394.312 371.531 412.182 365.156C449.885 351.719 477.728 322.234 488.572 284.255C498.187 250.594 493.906 210.307 476.51 170.823C461.65 137.094 438.541 105.463 407.833 76.8279C399.718 69.6091 392.333 63.5362 385.275 58.2602C369.348 46.3591 352.567 36.1039 335.4 27.7758C317.411 19.0466 298.916 12.4008 280.426 8.01539C266.296 4.66123 248.817 1.86435 229.869 1.86435L229.874 1.86956Z" fill="white"/>
</g>
<path d="M344.078 402.095C340.286 402.095 336.458 401.991 332.594 401.777C312.641 400.678 291.734 396.751 270.448 390.095C231.651 377.975 193.213 355.658 159.302 325.553C127.036 296.918 101.469 261.829 85.3697 224.095C76.9062 204.251 71.5155 184.131 69.3593 164.293C66.9999 142.621 68.6041 121.934 74.1249 102.809C79.8384 83.0117 90.4895 64.6523 104.932 49.7044C119.094 35.0481 136.995 23.5481 156.703 16.4388C175.354 9.70961 195.854 6.33461 217.672 6.44398C237.609 6.52732 258.25 9.48044 279.021 15.2148C318.052 25.9961 355.021 45.2825 388.88 72.5377C395.713 78.0325 402.885 84.444 411.463 92.7096C443.469 124.496 466.469 159.402 479.818 196.46C487.026 216.465 491.135 236.428 492.021 255.783C493 277.069 490.036 297.142 483.208 315.444C476.01 334.736 464.411 351.585 448.713 365.533C433.745 378.835 415.266 389.001 395.281 394.944C379.271 399.699 362.094 402.095 344.078 402.095ZM216.776 6.75127C195.338 6.75127 175.167 10.1054 156.807 16.7304C137.146 23.819 119.286 35.2981 105.161 49.9231C90.7551 64.8294 80.1249 83.1523 74.427 102.897C68.9166 121.98 67.3176 142.631 69.6718 164.262C71.828 184.069 77.203 204.163 85.6614 223.98C101.745 261.678 127.281 296.725 159.516 325.335C193.396 355.402 231.792 377.704 270.552 389.809C291.812 396.449 312.698 400.376 332.625 401.47C354.807 402.694 375.859 400.397 395.203 394.652C415.146 388.725 433.583 378.579 448.521 365.309C464.177 351.397 475.755 334.585 482.932 315.345C489.745 297.074 492.703 277.048 491.724 255.803C490.838 236.475 486.734 216.548 479.536 196.574C466.208 159.559 443.229 124.689 411.255 92.9388C402.687 84.6784 395.516 78.2721 388.698 72.7825C354.865 45.5534 317.937 26.2877 278.943 15.5169C258.203 9.78773 237.588 6.83982 217.677 6.75127C217.385 6.75127 217.083 6.75127 216.781 6.75127H216.776Z" fill="white"/>
<path d="M330.458 424.667C303.864 424.667 276.036 419.746 248.104 409.99C206.791 395.558 167.921 371.652 135.692 340.865C102.124 308.798 77.39 272.084 62.1712 231.751C54.4264 211.23 50.0254 190.261 49.0827 169.423C48.0723 147.068 51.1348 125.943 58.1921 106.631C72.4837 67.5112 104.65 37.0216 146.437 22.9799C183.812 10.4174 227.801 10.6414 273.65 23.6153C313.098 34.7768 352.093 55.8341 386.421 84.5112C393.65 90.5424 401.072 97.4383 409.791 106.204C442.666 140.36 465.624 177.621 478.031 216.949C484.676 238.022 487.952 259.022 487.76 279.371C487.546 301.574 483.182 322.292 474.775 340.938C466.01 360.386 452.88 377.178 435.755 390.839C419.406 403.886 399.682 413.574 378.718 418.85C363.301 422.735 347.119 424.662 330.458 424.662V424.667ZM205.786 14.032C184.812 14.032 164.874 17.1101 146.531 23.2716C104.833 37.2872 72.7389 67.7091 58.4785 106.735C51.4368 126.011 48.3743 147.095 49.3848 169.407C50.3275 190.214 54.7233 211.152 62.4525 231.636C77.6556 271.928 102.364 308.6 135.895 340.636C168.093 371.397 206.926 395.277 248.197 409.699C293.577 425.553 338.682 428.615 378.635 418.558C399.557 413.287 419.239 403.621 435.557 390.6C452.64 376.97 465.739 360.22 474.489 340.813C482.88 322.204 487.234 301.532 487.447 279.371C487.635 259.053 484.369 238.084 477.734 217.048C465.338 177.766 442.4 140.542 409.562 106.423C400.854 97.6674 393.437 90.782 386.223 84.756C351.926 56.1049 312.968 35.0685 273.562 23.9174C250.281 17.3289 227.473 14.0372 205.781 14.0372L205.786 14.032Z" fill="white"/>
<path d="M317.349 443.428C294.927 443.428 271.75 440.017 248.937 433.204C205.359 420.189 165.115 397.772 129.323 366.574C94.2916 336.038 67.0052 298.392 50.427 257.694C41.6927 236.251 36.2604 214.616 34.2864 193.376C32.125 170.106 34.2135 147.981 40.4895 127.606C53.4895 85.4284 84.9114 51.7982 126.698 35.3503C146.208 27.668 167.583 23.4128 190.224 22.7045C211.193 22.0482 232.917 24.418 254.792 29.7566C296.161 39.8451 336.771 60.0691 372.229 88.2305C380.687 94.9493 388.766 102.033 396.25 109.293C430.766 143.517 455.266 181.001 469.083 220.704C476.578 242.257 480.656 263.882 481.203 284.986C481.792 307.887 478.161 329.512 470.422 349.251C454.75 389.194 421.214 420.126 378.427 434.111C359.422 440.324 338.729 443.428 317.349 443.428ZM196.885 22.8763C174.797 22.8763 150.74 26.2149 126.812 35.6368C85.1093 52.0534 53.7552 85.6107 40.7864 127.699C34.5156 148.038 32.4375 170.121 34.5937 193.35C36.5625 214.559 41.9843 236.168 50.7135 257.585C67.276 298.236 94.526 335.845 129.521 366.345C165.281 397.512 205.49 419.902 249.026 432.913C293.531 446.204 339.448 446.527 378.328 433.819C421.031 419.861 454.49 389.001 470.13 349.142C477.865 329.439 481.484 307.856 480.896 284.996C480.354 263.923 476.281 242.324 468.792 220.803C454.99 181.147 430.516 143.704 396.031 109.512C388.557 102.262 380.479 95.1784 372.036 88.4753C336.609 60.3347 296.042 40.1316 254.714 30.0586C238.766 26.1628 218.792 22.8763 196.885 22.8763Z" fill="white"/>
<path d="M305.234 458.491C283.572 458.491 261.067 455.335 238.27 449.006C196.036 437.277 155.109 415.022 119.921 384.637C83.989 353.605 56.0411 315.783 39.1036 275.246C30.3328 254.267 24.7651 232.845 22.5568 211.574C20.213 188.996 21.7078 166.975 27.0047 146.116C32.312 125.215 42.8172 105.204 57.3901 88.246C71.7495 71.5325 89.8693 57.9804 109.781 49.0481C146.906 32.4023 190.671 28.3814 236.343 37.4231C278.098 45.6939 318.572 64.0742 356.64 92.0585C365.864 98.8398 374.624 106.46 381.979 113.022C415.848 144.053 441.963 181.418 457.505 221.09C466.046 242.897 471.156 264.949 472.692 286.652C474.348 310.09 471.76 332.506 464.994 353.272C457.994 374.741 445.76 394.684 429.614 410.939C413.703 426.954 393.916 439.501 372.374 447.236C351.468 454.746 328.854 458.501 305.229 458.501L305.234 458.491ZM189.531 33.0169C161.041 33.0169 134.067 38.4908 109.906 49.3242C90.0307 58.2356 71.9526 71.7617 57.6193 88.4387C43.0828 105.366 32.5984 125.329 27.3015 146.184C22.0151 167.006 20.5203 188.996 22.864 211.538C25.0672 232.777 30.6245 254.173 39.3797 275.121C56.3068 315.616 84.2234 353.402 120.119 384.397C155.27 414.751 196.156 436.986 238.348 448.699C285.942 461.913 332.249 461.298 372.27 446.934C393.77 439.215 413.526 426.689 429.395 410.71C445.51 394.491 457.718 374.59 464.703 353.163C471.458 332.439 474.041 310.064 472.385 286.658C470.848 264.991 465.744 242.965 457.218 221.189C441.697 181.564 415.604 144.236 381.77 113.236C374.421 106.678 365.666 99.0637 356.453 92.2929C318.421 64.3346 277.989 45.97 236.281 37.7096C220.401 34.5689 204.744 33.0064 189.531 33.0064V33.0169Z" fill="white"/>
<path d="M292.74 470.866C273.865 470.866 254.687 468.496 235.594 463.793C213.474 458.34 191.74 450.157 170.979 439.48C150.734 429.059 131.359 416.225 113.396 401.34C95.6875 386.673 79.7031 370.111 65.8802 352.116C51.5364 333.444 39.8437 313.647 31.1354 293.262C21.7968 271.402 15.776 249.288 13.2447 227.522C10.4791 203.762 11.9739 180.97 17.677 159.772C23.3854 138.564 33.3437 119.262 47.276 102.402C61.151 85.6158 78.2135 72.1523 97.9895 62.3919C117.333 52.845 138.932 46.8919 162.187 44.7044C183.75 42.6783 206.193 43.9075 228.885 48.3658C250.328 52.5794 271.641 59.5116 292.24 68.97C312.062 78.0742 331.323 89.5585 349.479 103.105C357.203 108.871 365.271 115.585 374.13 123.631C409.031 156.366 434.385 193.324 449.495 233.496C457.594 255.038 462.312 276.892 463.521 298.46C464.807 321.454 462.036 343.574 455.297 364.21C448.609 384.673 437.042 403.949 421.844 419.965C406.849 435.767 388.26 448.47 368.094 456.699C347.896 464.939 325.812 469.637 302.479 470.657C299.24 470.798 295.995 470.871 292.734 470.871L292.74 470.866ZM182.588 44.0637C175.724 44.0637 168.932 44.3762 162.219 45.0064C139 47.1887 117.432 53.1314 98.125 62.6627C78.3854 72.4023 61.3593 85.8398 47.5104 102.595C33.6041 119.423 23.6666 138.684 17.9739 159.85C12.2812 181.012 10.7916 203.762 13.552 227.486C16.0781 249.22 22.0937 271.309 31.4218 293.142C40.1197 313.496 51.7968 333.277 66.1197 351.928C79.9322 369.902 95.901 386.449 113.588 401.1C131.536 415.97 150.891 428.793 171.115 439.204C191.854 449.876 213.568 458.048 235.661 463.491C258.021 469.001 280.495 471.309 302.458 470.345C325.76 469.324 347.802 464.637 367.974 456.407C388.099 448.194 406.651 435.517 421.615 419.746C436.781 403.767 448.323 384.527 454.995 364.111C461.724 343.517 464.49 321.428 463.203 298.47C462 276.939 457.286 255.116 449.198 233.6C434.109 193.475 408.776 156.548 373.911 123.85C365.057 115.809 357.005 109.105 349.286 103.34C331.146 89.8085 311.906 78.3346 292.099 69.2408C271.526 59.7929 250.229 52.8658 228.812 48.6575C213.219 45.595 197.734 44.0585 182.578 44.0585L182.588 44.0637Z" fill="white"/>
<path d="M281.484 480.549C265.129 480.549 248.364 478.793 231.432 475.288C209.728 470.804 188.088 463.335 167.119 453.096C146.822 443.195 127.52 430.877 109.734 416.497C91.8847 402.064 75.8326 386.028 62.0253 368.83C47.593 350.861 35.6086 331.622 26.4003 311.632C16.5149 290.179 9.9732 268.09 6.95237 245.981C3.73883 222.502 4.5982 199.538 9.49925 177.736C14.2961 156.392 23.6659 136.616 37.3534 118.955C50.6451 101.804 67.8274 87.2674 87.0461 76.908C106.322 66.5278 128.051 59.8716 151.64 57.1216C173.359 54.5903 196.145 55.4028 219.369 59.5435C260.051 66.7882 300.822 84.5591 337.265 110.934C345.666 117.017 354.114 123.846 362.374 131.241C379.176 146.528 394.057 163.205 406.593 180.809C419.817 199.366 430.458 218.997 438.223 239.142C446.4 260.351 451.39 281.799 453.057 302.887C454.869 325.809 452.671 347.648 446.52 367.804C440.077 388.918 429.515 408.017 415.119 424.575C400.697 441.163 383.228 454.267 363.208 463.517C343.515 472.616 321.702 478.127 298.359 479.913C292.796 480.335 287.166 480.549 281.494 480.549H281.484ZM176.744 55.9914C168.254 55.9914 159.89 56.4705 151.671 57.4237C128.124 60.1737 106.426 66.8143 87.192 77.1789C68.0097 87.5174 50.8586 102.028 37.593 119.142C23.9367 136.767 14.5826 156.502 9.79612 177.799C4.9055 199.57 4.05133 222.491 7.25966 245.939C10.2805 268.017 16.8117 290.08 26.6815 311.502C44.6607 350.528 73.4472 386.747 109.932 416.257C127.697 430.622 146.984 442.924 167.254 452.82C188.202 463.043 209.817 470.502 231.494 474.986C254.27 479.695 276.754 481.247 298.327 479.606C321.629 477.825 343.411 472.32 363.067 463.236C383.046 454.007 400.484 440.929 414.879 424.372C429.244 407.851 439.786 388.793 446.218 367.715C452.359 347.601 454.551 325.793 452.739 302.918C451.072 281.856 446.088 260.434 437.926 239.257C430.171 219.132 419.541 199.528 406.338 180.991C393.807 163.403 378.942 146.741 362.161 131.471C353.911 124.085 345.473 117.257 337.077 111.184C300.666 84.8351 259.947 67.0851 219.312 59.8455C204.906 57.283 190.661 55.9966 176.739 55.9966L176.744 55.9914Z" fill="white"/>
</svg>
