<svg width="167" height="49" viewBox="0 0 167 49" fill="none" xmlns="http://www.w3.org/2000/svg">
<g clip-path="url(#clip0_3629_36047)">
<mask id="mask0_3629_36047" style="mask-type:luminance" maskUnits="userSpaceOnUse" x="0" y="-7" width="167" height="56">
<path d="M167 -7H0V49H167V-7Z" fill="white"/>
</mask>
<g mask="url(#mask0_3629_36047)">
<path d="M28.2957 43.1632L27.246 46.8434H26.8325L25.8994 43.7055L24.9451 46.8434L24.5422 46.8487L23.5137 43.1632H23.9113L24.7595 46.3906L25.7085 43.1632H26.1221L27.0445 46.3906L27.8981 43.1632H28.2957ZM30.4009 43.4633V44.8375H31.8058V45.1428H30.4009V46.5381H31.9649V46.8434H30.0298V43.158H31.9649V43.4633H30.4009ZM35.596 44.9428C35.8047 44.9813 35.9813 45.0866 36.1261 45.2587C36.2712 45.4307 36.3435 45.6308 36.3435 45.8589C36.3435 46.0448 36.2958 46.2133 36.2004 46.3643C36.1086 46.5117 35.9724 46.6292 35.7921 46.7171C35.6119 46.8013 35.3965 46.8434 35.1454 46.8434H33.8624V43.1632H35.1082C35.483 43.1632 35.7676 43.2491 35.9618 43.4212C36.1599 43.5933 36.2587 43.8161 36.2587 44.0898C36.2587 44.3179 36.197 44.5041 36.0731 44.6479C35.9495 44.7884 35.7905 44.8865 35.596 44.9428ZM34.2335 44.7901H35.0976C35.3487 44.7901 35.5413 44.7322 35.6755 44.6163C35.8134 44.4969 35.8823 44.3337 35.8823 44.1267C35.8823 43.923 35.8134 43.7634 35.6755 43.6476C35.5413 43.5318 35.3434 43.4738 35.0817 43.4738H34.2335V44.7901ZM35.1188 46.5328C35.3875 46.5328 35.596 46.4696 35.7444 46.3432C35.8965 46.2169 35.9724 46.0431 35.9724 45.822C35.9724 45.6009 35.8929 45.4255 35.7338 45.2955C35.5784 45.1622 35.368 45.0955 35.1029 45.0955H34.2335V46.5328H35.1188ZM43.7291 44.2373C43.6231 43.9951 43.4607 43.8055 43.2414 43.6686C43.0259 43.5282 42.7714 43.4581 42.4779 43.4581C42.2022 43.4581 41.955 43.5212 41.7357 43.6476C41.5167 43.7739 41.3434 43.9546 41.2162 44.1899C41.0889 44.4215 41.0253 44.6917 41.0253 45.0007C41.0253 45.3096 41.0889 45.5815 41.2162 45.8168C41.3434 46.052 41.5167 46.2327 41.7357 46.359C41.955 46.4854 42.2022 46.5486 42.4779 46.5486C42.736 46.5486 42.9676 46.4943 43.1724 46.3854C43.3811 46.2731 43.5472 46.1152 43.6708 45.9115C43.798 45.7045 43.8706 45.464 43.8882 45.1902H42.3295V44.8901H44.2805V45.1586C44.2629 45.4815 44.1744 45.7746 44.0154 46.0379C43.8563 46.2975 43.6426 46.5029 43.3739 46.6539C43.1088 46.8049 42.8102 46.8803 42.4779 46.8803C42.1353 46.8803 41.8241 46.8013 41.5449 46.6434C41.2658 46.4818 41.0448 46.259 40.8822 45.9747C40.7231 45.6868 40.6436 45.3623 40.6436 45.0007C40.6436 44.6391 40.7231 44.3162 40.8822 44.0319C41.0448 43.744 41.2658 43.5212 41.5449 43.3633C41.8241 43.2017 42.1353 43.1211 42.4779 43.1211C42.8739 43.1211 43.2202 43.2195 43.517 43.4159C43.8139 43.6124 44.0296 43.8862 44.1638 44.2373H43.7291ZM48.0988 46.8434L47.1816 45.3061H46.4977V46.8434H46.1266V43.1632H47.24C47.6535 43.1632 47.9663 43.2616 48.1783 43.4581C48.394 43.6545 48.5017 43.9125 48.5017 44.232C48.5017 44.4988 48.4241 44.7269 48.2685 44.9164C48.1167 45.1024 47.8904 45.2235 47.5899 45.2797L48.5442 46.8434H48.0988ZM46.4977 45.006H47.2453C47.5352 45.006 47.7525 44.9358 47.8974 44.7954C48.0458 44.6549 48.12 44.4672 48.12 44.232C48.12 43.9898 48.0494 43.8039 47.908 43.6739C47.7667 43.5406 47.5441 43.4738 47.24 43.4738H46.4977V45.006ZM52.5517 45.9694H50.8658L50.5424 46.8434H50.15L51.502 43.2106H51.9208L53.2674 46.8434H52.8751L52.5517 45.9694ZM52.4403 45.6641L51.7087 43.6739L50.9771 45.6641H52.4403ZM57.3992 44.2215C57.3992 44.5374 57.2949 44.7918 57.0865 44.9849C56.878 45.178 56.5652 45.2745 56.1481 45.2745H55.4006V46.8434H55.0294V43.1632H56.1481C56.5616 43.1632 56.8727 43.2597 57.0812 43.4528C57.2932 43.6459 57.3992 43.902 57.3992 44.2215ZM56.1481 44.9586C56.7276 44.9586 57.0175 44.7128 57.0175 44.2215C57.0175 43.9757 56.9486 43.7897 56.8108 43.6634C56.6729 43.537 56.452 43.4738 56.1481 43.4738H55.4006V44.9586H56.1481ZM61.9398 43.1632V46.8434H61.5687V45.1218H59.5594V46.8434H59.1883V43.1632H59.5594V44.8164H61.5687V43.1632H61.9398ZM64.3238 43.1632V46.8434H63.9527V43.1632H64.3238ZM66.1611 45.0007C66.1611 44.6391 66.2406 44.3162 66.3997 44.0319C66.5587 43.744 66.7761 43.5212 67.0518 43.3633C67.3274 43.2017 67.6349 43.1211 67.9742 43.1211C68.3878 43.1211 68.7413 43.2195 69.0345 43.4159C69.3314 43.6091 69.5471 43.8828 69.6813 44.2373H69.2466C69.1406 43.9881 68.9779 43.7933 68.7589 43.6529C68.5432 43.5124 68.2817 43.4423 67.9742 43.4423C67.7022 43.4423 67.4564 43.5054 67.2373 43.6318C67.0216 43.7582 66.852 43.9408 66.7284 44.1793C66.6047 44.4146 66.5428 44.6884 66.5428 45.0007C66.5428 45.313 66.6047 45.5868 66.7284 45.822C66.852 46.0573 67.0216 46.2379 67.2373 46.3643C67.4564 46.4907 67.7022 46.5538 67.9742 46.5538C68.2817 46.5538 68.5432 46.4854 68.7589 46.3485C68.9779 46.208 69.1406 46.0151 69.2466 45.7694H69.6813C69.5471 46.1204 69.3314 46.3923 69.0345 46.5854C68.7377 46.7786 68.3841 46.875 67.9742 46.875C67.6349 46.875 67.3274 46.796 67.0518 46.6381C66.7761 46.4765 66.5587 46.2537 66.3997 45.9694C66.2406 45.6851 66.1611 45.3623 66.1611 45.0007ZM72.7112 46.8803C72.4673 46.8803 72.2516 46.8382 72.0644 46.7539C71.8805 46.6697 71.7357 46.5522 71.6297 46.4012C71.5236 46.2502 71.467 46.0817 71.46 45.8957H71.8523C71.8699 46.0747 71.9495 46.2327 72.0909 46.3696C72.2321 46.5029 72.4389 46.5696 72.7112 46.5696C72.9621 46.5696 73.1599 46.5065 73.305 46.3801C73.4534 46.2502 73.5276 46.0869 73.5276 45.8905C73.5276 45.7325 73.4869 45.6062 73.4057 45.5114C73.3243 45.413 73.2235 45.3412 73.1035 45.2955C72.9833 45.2465 72.8172 45.1938 72.6052 45.1376C72.3577 45.0708 72.1615 45.0059 72.0167 44.9428C71.8716 44.8796 71.748 44.7812 71.6456 44.6479C71.5429 44.5146 71.4918 44.3337 71.4918 44.1056C71.4918 43.9161 71.5412 43.7476 71.6403 43.6002C71.7391 43.4492 71.8788 43.3317 72.0591 43.2475C72.2394 43.1632 72.4461 43.1211 72.6794 43.1211C73.0221 43.1211 73.2977 43.2053 73.5064 43.3738C73.7185 43.5387 73.8404 43.7529 73.8722 44.0161H73.4693C73.4445 43.8651 73.3614 43.7318 73.2201 43.616C73.0787 43.4966 72.8878 43.437 72.6476 43.437C72.4249 43.437 72.2394 43.4966 72.0909 43.616C71.9425 43.7318 71.8682 43.8915 71.8682 44.0951C71.8682 44.2495 71.9087 44.3742 71.9902 44.4689C72.0714 44.5637 72.1721 44.6357 72.2924 44.6848C72.416 44.7338 72.582 44.7865 72.7907 44.8427C73.031 44.9095 73.2254 44.976 73.3739 45.0428C73.5223 45.106 73.6477 45.2043 73.7503 45.3376C73.8527 45.4709 73.9041 45.6499 73.9041 45.8747C73.9041 46.0467 73.858 46.2099 73.7662 46.3643C73.6742 46.5187 73.5382 46.6434 73.358 46.7381C73.1777 46.8329 72.9621 46.8803 72.7112 46.8803ZM79.5324 46.8803C79.2885 46.8803 79.0731 46.8382 78.8856 46.7539C78.702 46.6697 78.5569 46.5522 78.4509 46.4012C78.3449 46.2502 78.2885 46.0817 78.2812 45.8957H78.6736C78.6914 46.0747 78.7709 46.2327 78.9121 46.3696C79.0536 46.5029 79.2603 46.5696 79.5324 46.5696C79.7835 46.5696 79.9814 46.5065 80.1262 46.3801C80.2746 46.2502 80.3489 46.0869 80.3489 45.8905C80.3489 45.7325 80.3084 45.6062 80.2269 45.5114C80.1457 45.413 80.045 45.3412 79.9247 45.2955C79.8047 45.2465 79.6384 45.1938 79.4264 45.1376C79.1791 45.0708 78.983 45.0059 78.8379 44.9428C78.6931 44.8796 78.5695 44.7812 78.4668 44.6479C78.3644 44.5146 78.313 44.3337 78.313 44.1056C78.313 43.9161 78.3627 43.7476 78.4615 43.6002C78.5605 43.4492 78.7001 43.3317 78.8803 43.2475C79.0606 43.1632 79.2673 43.1211 79.5006 43.1211C79.8435 43.1211 80.1192 43.2053 80.3277 43.3738C80.5397 43.5387 80.6617 43.7529 80.6935 44.0161H80.2905C80.266 43.8651 80.1828 43.7318 80.0414 43.616C79.9001 43.4966 79.7093 43.437 79.4688 43.437C79.2461 43.437 79.0606 43.4966 78.9121 43.616C78.7637 43.7318 78.6895 43.8915 78.6895 44.0951C78.6895 44.2495 78.7302 44.3742 78.8114 44.4689C78.8928 44.5637 78.9936 44.6357 79.1136 44.6848C79.2375 44.7338 79.4035 44.7865 79.6119 44.8427C79.8524 44.9095 80.0467 44.976 80.1951 45.0428C80.3436 45.106 80.4691 45.2043 80.5715 45.3376C80.6742 45.4709 80.7253 45.6499 80.7253 45.8747C80.7253 46.0467 80.6795 46.2099 80.5874 46.3643C80.4956 46.5187 80.3595 46.6434 80.1792 46.7381C79.999 46.8329 79.7835 46.8803 79.5324 46.8803ZM84.7771 43.1632V43.4686H83.7486V46.8434H83.3775V43.4686H82.3437V43.1632H84.7771ZM86.8848 43.1632V45.4798C86.8848 45.8448 86.9713 46.1152 87.1445 46.2906C87.3212 46.466 87.5617 46.5538 87.8655 46.5538C88.1694 46.5538 88.4063 46.4679 88.576 46.2959C88.7492 46.1204 88.8357 45.8483 88.8357 45.4798V43.1632H89.2068V45.4745C89.2068 45.9414 89.0813 46.2923 88.8304 46.5275C88.5829 46.7628 88.2596 46.8803 87.8602 46.8803C87.4609 46.8803 87.1356 46.7628 86.8848 46.5275C86.6373 46.2923 86.5136 45.9414 86.5136 45.4745V43.1632H86.8848ZM92.2984 43.1632C92.7083 43.1632 93.0601 43.2369 93.3534 43.3843C93.6467 43.5318 93.8713 43.744 94.0267 44.0214C94.1821 44.2988 94.26 44.6285 94.26 45.0112C94.26 45.3903 94.1821 45.7184 94.0267 45.9958C93.8713 46.2695 93.6467 46.4801 93.3534 46.6276C93.0601 46.7714 92.7083 46.8434 92.2984 46.8434H91.201V43.1632H92.2984ZM92.2984 46.5381C92.8143 46.5381 93.2066 46.4048 93.4753 46.1379C93.7474 45.8677 93.8836 45.492 93.8836 45.0112C93.8836 44.5268 93.7474 44.1494 93.4753 43.8792C93.2066 43.6055 92.8143 43.4686 92.2984 43.4686H91.5721V46.5381H92.2984ZM96.4816 43.1632V46.8434H96.1105V43.1632H96.4816ZM100.153 46.8803C99.8103 46.8803 99.4992 46.8013 99.2199 46.6434C98.9408 46.4818 98.7198 46.259 98.5572 45.9747C98.3981 45.6868 98.3186 45.3623 98.3186 45.0007C98.3186 44.6391 98.3981 44.3162 98.5572 44.0319C98.7198 43.744 98.9408 43.5212 99.2199 43.3633C99.4992 43.2017 99.8103 43.1211 100.153 43.1211C100.499 43.1211 100.812 43.2017 101.091 43.3633C101.371 43.5212 101.59 43.744 101.749 44.0319C101.908 44.3162 101.987 44.6391 101.987 45.0007C101.987 45.3623 101.908 45.6868 101.749 45.9747C101.59 46.259 101.371 46.4818 101.091 46.6434C100.812 46.8013 100.499 46.8803 100.153 46.8803ZM100.153 46.5591C100.429 46.5591 100.676 46.4959 100.895 46.3696C101.114 46.2432 101.287 46.0625 101.415 45.8273C101.542 45.5887 101.606 45.313 101.606 45.0007C101.606 44.6884 101.542 44.4146 101.415 44.1793C101.287 43.9441 101.114 43.7634 100.895 43.6371C100.676 43.5107 100.429 43.4475 100.153 43.4475C99.8773 43.4475 99.63 43.5107 99.4107 43.6371C99.1917 43.7634 99.0184 43.9441 98.8912 44.1793C98.7639 44.4146 98.7003 44.6884 98.7003 45.0007C98.7003 45.313 98.7639 45.5887 98.8912 45.8273C99.0184 46.0625 99.1917 46.2432 99.4107 46.3696C99.63 46.4959 99.8773 46.5591 100.153 46.5591Z" fill="black"/>
<path d="M22.6576 23.8237C22.5729 23.9218 22.3823 24.2863 22.0858 24.9174C21.7893 25.5484 21.4292 26.3616 21.0056 27.3572C20.5961 28.353 20.1513 29.5027 19.6713 30.8067C19.1912 32.111 18.7182 33.4921 18.2522 34.9505C17.7862 36.3947 17.3556 37.8811 16.9602 39.4096C16.5649 40.9379 16.2472 42.4243 16.0071 43.8686C15.6259 43.9808 15.1882 44.0931 14.694 44.2053C14.2139 44.3175 13.7338 44.4226 13.2537 44.5207C12.7737 44.6188 12.3359 44.6961 11.9406 44.7521C11.5452 44.8223 11.2557 44.8572 11.0722 44.8572C11.3264 43.7776 11.5735 42.7469 11.8135 41.7652C12.0677 40.7838 12.343 39.8232 12.6395 38.8836C12.936 37.9582 13.2608 37.0397 13.6138 36.1284C13.9809 35.2168 14.4045 34.2773 14.8846 33.3097C14.348 33.9968 13.7762 34.663 13.169 35.308C12.576 35.953 11.9617 36.528 11.3264 37.0327C10.7051 37.5375 10.0697 37.9371 9.42014 38.2317C8.78475 38.5402 8.14935 38.6943 7.51395 38.6943C7.07624 38.6943 6.58203 38.5751 6.03134 38.3368C5.4948 38.0984 4.95117 37.7689 4.4005 37.3482C3.84981 36.9416 3.31324 36.4507 2.79082 35.8759C2.26837 35.3149 1.80241 34.7049 1.39293 34.0461C0.997573 33.387 0.679873 32.6927 0.439834 31.9635C0.185674 31.2346 0.0585938 30.5054 0.0585938 29.7762C0.0585938 28.5703 0.228033 27.2521 0.566913 25.8217C0.905793 24.3916 1.37881 22.9191 1.98597 21.4047C2.59314 19.8903 3.32736 18.369 4.1887 16.8404C5.05002 15.298 5.99606 13.8186 7.02681 12.4023C8.05756 10.9861 9.15894 9.66797 10.3309 8.44803C11.517 7.21404 12.7454 6.14133 14.0162 5.22987C15.287 4.31841 16.579 3.60326 17.8921 3.08445C19.2053 2.55159 20.5185 2.28516 21.8316 2.28516C22.3258 2.28516 22.8059 2.39735 23.2719 2.62171C23.7519 2.83204 24.1967 3.10548 24.6061 3.44201C25.0297 3.76454 25.411 4.1221 25.75 4.51472C26.1028 4.90737 26.3995 5.27194 26.6395 5.60849C26.9219 6.01514 27.1759 6.48489 27.402 7.01773C27.642 7.55059 27.762 8.08345 27.762 8.61629C27.762 9.51373 27.6208 10.4602 27.3383 11.4558C27.0701 12.4514 26.6959 13.44 26.2159 14.4216C25.7358 15.4032 25.171 16.3567 24.5215 17.2822C23.872 18.1935 23.173 19.0139 22.4247 19.7431L18.697 16.2936C19.1206 15.8589 19.6289 15.298 20.222 14.6109C20.815 13.9238 21.3798 13.1526 21.9163 12.2972C22.4529 11.4278 22.9118 10.5093 23.293 9.54177C23.6743 8.56019 23.8649 7.56462 23.8649 6.55499C23.8649 6.38673 23.8579 6.19743 23.8437 5.98709C23.8296 5.77676 23.7802 5.58045 23.6955 5.39813C23.6249 5.21585 23.5048 5.06161 23.3354 4.93542C23.1801 4.8092 22.9542 4.74609 22.6576 4.74609C21.8669 4.74609 20.9985 5.04057 20.0525 5.62951C19.1206 6.21846 18.1534 7.01773 17.1508 8.02736C16.1625 9.02294 15.1599 10.1938 14.1433 11.54C13.1408 12.8721 12.1735 14.2884 11.2416 15.7888C10.3097 17.2892 9.43426 18.8316 8.61531 20.4161C7.81048 21.9867 7.10448 23.5152 6.4973 25.0016C5.90427 26.488 5.43125 27.8832 5.07826 29.1872C4.73937 30.4913 4.56993 31.6201 4.56993 32.5736C4.56993 33.4571 4.67582 34.088 4.88762 34.4666C5.11356 34.8452 5.42419 35.0345 5.81954 35.0345C6.29963 35.0345 6.84326 34.8803 7.45041 34.5719C8.05756 34.2493 8.68592 33.8357 9.33543 33.3308C9.99907 32.8119 10.6557 32.2371 11.3052 31.606C11.9688 30.9611 12.583 30.3161 13.1478 29.6709C13.7267 29.0118 14.2421 28.381 14.694 27.7779C15.1599 27.1751 15.527 26.6632 15.7953 26.2425C16.0495 25.8359 16.2683 25.4151 16.4519 24.9805C16.6355 24.5457 16.8473 24.1042 17.0873 23.6554C17.6239 23.6554 18.1181 23.6624 18.5699 23.6765C19.0359 23.6904 19.4877 23.7114 19.9254 23.7394C20.3773 23.7536 20.822 23.7674 21.2598 23.7816C21.6975 23.7957 22.1634 23.8096 22.6576 23.8237ZM36.0857 33.2678C36.0857 33.3518 36.1281 33.3939 36.2127 33.3939C36.3682 33.3939 36.6012 33.3028 36.9118 33.1204C37.2367 32.9383 37.6037 32.7069 38.0131 32.4264C38.4225 32.1459 38.8534 31.8305 39.3052 31.4799C39.7571 31.1293 40.1877 30.7928 40.5971 30.4702C41.0066 30.1337 41.3738 29.8253 41.6984 29.5448C42.0372 29.2643 42.2915 29.0539 42.4609 28.9137C42.5881 29.0401 42.7363 29.2011 42.9057 29.3976C43.0894 29.5938 43.2588 29.7762 43.414 29.9444C43.1033 30.2529 42.7081 30.6246 42.2279 31.0592C41.762 31.494 41.2466 31.9497 40.6817 32.4264C40.1311 32.8892 39.5522 33.3518 38.945 33.8147C38.3519 34.2634 37.7731 34.67 37.2082 35.0345C36.6436 35.3851 36.1139 35.6725 35.6199 35.8969C35.1257 36.1212 34.7162 36.2334 34.3914 36.2334C34.1514 36.2334 33.8832 36.1564 33.5865 36.002C33.2901 35.8618 33.0077 35.6725 32.7392 35.4341C32.4852 35.2099 32.2664 34.9574 32.0828 34.6769C31.9134 34.3964 31.8286 34.1301 31.8286 33.8776C31.8286 33.6534 31.9134 33.2257 32.0828 32.5946C32.2522 31.9636 32.457 31.2274 32.6971 30.3862C32.0616 31.2415 31.4403 31.9987 30.8331 32.6578C30.226 33.3028 29.6682 33.8568 29.1599 34.3194C28.6517 34.7822 28.2068 35.1536 27.8256 35.4341C27.4444 35.7287 27.1619 35.9391 26.9783 36.0652C26.8653 36.1353 26.7313 36.1844 26.5759 36.2124C26.4207 36.2545 26.2795 36.2756 26.1522 36.2756C25.884 36.2756 25.5876 36.1913 25.2628 36.0231C24.9379 35.869 24.6415 35.6725 24.3733 35.4341C24.0908 35.1958 23.8579 34.9294 23.6743 34.635C23.4766 34.3404 23.3778 34.06 23.3778 33.7936C23.3778 33.4851 23.4837 32.9732 23.6955 32.2581C23.8931 31.5431 24.1685 30.6875 24.5215 29.692C24.8603 28.6964 25.2628 27.5817 25.7288 26.3478C26.1947 25.1136 26.6959 23.8165 27.2326 22.4565C27.2608 22.3864 27.282 22.3584 27.2962 22.3722C27.3244 22.3722 27.3665 22.3722 27.4232 22.3722C27.6914 22.4144 28.0586 22.5266 28.5245 22.709C28.9905 22.8772 29.4424 23.0665 29.88 23.2769C30.3318 23.487 30.7203 23.6904 31.0449 23.8866C31.3697 24.069 31.5321 24.1951 31.5321 24.2652C31.4897 24.3636 31.3767 24.5948 31.1931 24.9595C31.0237 25.324 30.8191 25.7657 30.5791 26.2846C30.353 26.7893 30.106 27.3433 29.8376 27.9461C29.5836 28.5351 29.3436 29.103 29.1175 29.6498C28.9057 30.1969 28.7293 30.6947 28.5881 31.1434C28.4469 31.578 28.3763 31.9006 28.3763 32.111C28.3763 32.167 28.4044 32.195 28.4611 32.195C28.5739 32.195 28.8211 32.0478 29.2023 31.7534C29.5836 31.4447 30.0494 30.968 30.6 30.323C31.1649 29.6781 31.8004 28.8508 32.5064 27.8411C33.2123 26.8173 33.9465 25.5906 34.709 24.1602L35.3021 22.4986C35.3445 22.3864 35.4363 22.3301 35.5775 22.3301C35.6763 22.3301 35.8881 22.4285 36.2127 22.6247C36.5518 22.8071 36.9048 23.0244 37.2718 23.2769C37.6531 23.5152 37.9919 23.7605 38.2885 24.013C38.5849 24.2513 38.7474 24.4196 38.7756 24.5177C38.7756 24.5598 38.7686 24.6369 38.7544 24.7491C38.7404 24.8472 38.7192 24.9315 38.691 25.0016C38.5498 25.3802 38.3873 25.8289 38.2037 26.3478C38.0201 26.8525 37.8295 27.3854 37.6319 27.9461C37.4482 28.493 37.2649 29.047 37.0812 29.608C36.8976 30.1687 36.7282 30.6947 36.573 31.1853C36.4318 31.6623 36.3118 32.0899 36.2127 32.4685C36.1281 32.833 36.0857 33.0993 36.0857 33.2678ZM57.1386 29.9444C55.8397 31.2064 54.6112 32.2651 53.4532 33.1204C52.3095 33.976 51.2153 34.663 50.1704 35.1819C49.1255 35.7007 48.123 36.0721 47.1629 36.2966C46.2168 36.5208 45.2919 36.6331 44.3883 36.6331C44.007 36.6331 43.5834 36.4929 43.1176 36.2124C42.6515 35.9319 42.2209 35.5885 41.8254 35.1819C41.416 34.7892 41.0772 34.3756 40.809 33.9408C40.5405 33.5062 40.4065 33.1345 40.4065 32.826C40.4065 31.6761 40.5689 30.6246 40.8935 29.6709C41.2042 28.7033 41.6208 27.8341 42.1433 27.0628C42.6657 26.2915 43.2588 25.6114 43.9224 25.0224C44.6001 24.4337 45.2992 23.9429 46.0192 23.5501C46.7535 23.1577 47.4805 22.8631 48.2008 22.6668C48.9209 22.4704 49.5845 22.3722 50.1916 22.3722C50.6294 22.3722 51.0601 22.4986 51.4837 22.7508C51.9213 23.0033 52.3168 23.3118 52.6696 23.6765C53.0226 24.041 53.305 24.4265 53.5169 24.8331C53.7429 25.2258 53.8557 25.5695 53.8557 25.8639C53.8557 26.3406 53.6511 26.8314 53.2417 27.3361C52.8462 27.827 52.2814 28.3319 51.5471 28.8508C50.8128 29.3696 49.9303 29.9023 48.8997 30.4492C47.869 30.9821 46.7323 31.522 45.4898 32.0688C45.4474 32.4053 45.4262 32.7349 45.4262 33.0575C45.4262 33.4921 45.518 33.7867 45.7014 33.9408C45.8992 34.0951 46.2592 34.1722 46.7817 34.1722C47.7136 34.1722 48.589 34.0178 49.4079 33.7094C50.241 33.4009 51.0389 33.0012 51.8013 32.5106C52.5638 32.0198 53.2981 31.4588 54.0041 30.8278C54.71 30.1969 55.409 29.5589 56.1009 28.9137L57.1386 29.9444ZM49.6833 24.6859C49.4009 24.6859 49.0903 24.8403 48.7515 25.1488C48.4124 25.4431 48.0736 25.8359 47.7348 26.3267C47.3959 26.8173 47.0711 27.3854 46.7605 28.0304C46.4498 28.6615 46.1816 29.3203 45.9556 30.0076C46.478 29.6709 46.9865 29.3134 47.4805 28.9348C47.989 28.5562 48.4408 28.1637 48.836 27.7569C49.2315 27.3361 49.5491 26.9085 49.7891 26.4739C50.0291 26.0393 50.1494 25.6044 50.1494 25.1698C50.1494 25.0435 50.107 24.9315 50.0222 24.8331C49.9515 24.735 49.8385 24.6859 49.6833 24.6859ZM66.0132 32.9311C65.4201 32.9311 64.9047 32.833 64.4671 32.6367C64.001 33.1276 63.5137 33.5902 63.0055 34.025C62.4973 34.4457 61.996 34.8172 61.5018 35.1398C61.0075 35.4762 60.5205 35.7426 60.0402 35.9391C59.5602 36.1353 59.1084 36.2476 58.6847 36.2756C58.4731 36.2756 58.1623 36.1844 57.7528 36.002C57.3576 35.8199 56.9692 35.5815 56.5879 35.2869C56.1927 35.0065 55.8537 34.6841 55.5715 34.3194C55.2748 33.9408 55.1266 33.5622 55.1266 33.1836C55.1266 32.2581 55.2184 31.3327 55.4018 30.407C55.5854 29.4677 55.8185 28.5423 56.1009 27.6307C56.3691 26.7192 56.6728 25.8289 57.0116 24.9595C57.3364 24.0759 57.647 23.2276 57.9435 22.4144C58.6637 22.737 59.3626 23.0945 60.0402 23.487C60.7323 23.8797 61.3748 24.3425 61.9676 24.8752C61.756 25.296 61.5442 25.7799 61.3324 26.3267C61.1205 26.8735 60.9157 27.4414 60.7181 28.0304C60.5205 28.6193 60.3369 29.2083 60.1675 29.7973C59.9981 30.3862 59.8496 30.9331 59.7226 31.4378C59.5956 31.9427 59.4968 32.3914 59.4262 32.7839C59.3556 33.1625 59.3202 33.4361 59.3202 33.6043C59.3202 33.7165 59.3414 33.8216 59.3838 33.9197C59.4402 34.004 59.525 34.0461 59.638 34.0461C59.8638 34.0461 60.1108 33.976 60.3793 33.8357C60.6617 33.6955 60.9581 33.5131 61.2687 33.2889C61.5794 33.0503 61.89 32.777 62.2006 32.4685C62.5255 32.1459 62.8361 31.8094 63.1325 31.4588C62.8785 31.0242 62.7513 30.5894 62.7513 30.1548C62.7513 29.8602 62.7937 29.5096 62.8785 29.103C62.9773 28.6823 63.1043 28.2477 63.2597 27.799C63.4149 27.3503 63.5843 26.9015 63.768 26.4528C63.9658 25.99 64.1634 25.5623 64.361 25.1698C64.5728 24.7771 64.7704 24.4337 64.9541 24.1391C65.1517 23.8447 65.3283 23.6272 65.4835 23.487C65.8083 23.6133 66.1472 23.7885 66.5002 24.013C66.8532 24.2233 67.1781 24.4545 67.4745 24.707C67.7711 24.9454 68.0112 25.1837 68.1945 25.4221C68.3924 25.6466 68.5052 25.8359 68.5336 25.99C68.5336 26.2846 68.463 26.628 68.3218 27.0207C68.1806 27.4134 67.9827 27.8411 67.7287 28.3037C67.4887 28.7524 67.1921 29.2294 66.839 29.7341C66.5002 30.2249 66.126 30.7227 65.7165 31.2274C65.8014 31.2554 65.8859 31.2837 65.9708 31.3117C66.0696 31.3255 66.1826 31.3327 66.3096 31.3327C66.8745 31.3327 67.3757 31.2765 67.8133 31.1645C68.2512 31.0522 68.6676 30.8909 69.063 30.6806C69.4583 30.4563 69.8467 30.1828 70.228 29.8602C70.6092 29.5378 71.0256 29.1662 71.4774 28.7455C71.6047 28.8716 71.7671 29.0401 71.9647 29.2504C72.1765 29.4467 72.3459 29.6218 72.4729 29.7762C71.8799 30.3652 71.3153 30.8629 70.7786 31.2695C70.2561 31.6623 69.7337 31.9846 69.2113 32.2371C68.703 32.4754 68.1876 32.6509 67.6651 32.7629C67.1427 32.8751 66.592 32.9311 66.0132 32.9311ZM83.1689 33.2678C83.1689 33.3518 83.2113 33.3939 83.2959 33.3939C83.4231 33.3939 83.6349 33.3028 83.9314 33.1204C84.228 32.9383 84.5668 32.7069 84.9481 32.4264C85.3293 32.1459 85.7317 31.8305 86.1554 31.4799C86.593 31.1293 87.0094 30.7859 87.4049 30.4492C87.8003 30.1127 88.1533 29.8042 88.464 29.5237C88.7886 29.2432 89.0358 29.0259 89.2052 28.8716C89.3322 28.9979 89.4877 29.1662 89.671 29.3765C89.8689 29.5869 90.0453 29.7762 90.2007 29.9444C89.8617 30.2529 89.4522 30.6315 88.9722 31.0802C88.5061 31.5148 87.9979 31.9707 87.4473 32.4474C86.9106 32.9242 86.353 33.4009 85.7741 33.8776C85.1951 34.3404 84.6302 34.7542 84.0796 35.1187C83.5289 35.4832 83.0065 35.7778 82.5122 36.002C82.0182 36.2406 81.5873 36.3598 81.2203 36.3598C80.9661 36.3598 80.6836 36.3105 80.373 36.2124C80.0766 36.1143 79.8012 35.974 79.5472 35.7917C79.2929 35.6234 79.0811 35.4202 78.9117 35.1819C78.7423 34.9435 78.6575 34.6769 78.6575 34.3826C78.6575 34.2703 78.6505 34.137 78.6363 33.9829C78.6363 33.8147 78.6505 33.6043 78.6787 33.3518C78.7069 33.0855 78.7635 32.77 78.8481 32.4053C78.9329 32.0267 79.0599 31.5639 79.2293 31.0171C78.7635 31.5079 78.2129 32.0198 77.5774 32.5525C76.9561 33.0855 76.2995 33.5902 75.6076 34.0669C74.9158 34.5439 74.2169 34.9715 73.5108 35.3501C72.819 35.7426 72.1765 36.0372 71.5835 36.2334C71.5129 36.2614 71.4562 36.2756 71.4141 36.2756C71.3717 36.2756 71.3292 36.2756 71.2868 36.2756C71.1456 36.2756 70.9622 36.2054 70.7362 36.0652C70.4962 35.925 70.2631 35.7357 70.0373 35.4973C69.8113 35.2731 69.6207 35.0136 69.4655 34.719C69.2961 34.4247 69.2113 34.1301 69.2113 33.8357C69.2113 33.7515 69.2537 33.471 69.3382 32.9943C69.4231 32.5176 69.6279 31.9145 69.9525 31.1853C70.2631 30.4422 70.7292 29.6149 71.3504 28.7033C71.9717 27.7779 72.819 26.8314 73.8921 25.8639C74.4427 25.373 75.0358 24.9104 75.6712 24.4756C76.2077 24.1111 76.8219 23.7394 77.5138 23.3609C78.2056 22.9823 78.9329 22.6807 79.6954 22.4565C79.7236 22.4565 79.7448 22.4495 79.759 22.4354C79.7872 22.4213 79.8224 22.4285 79.8648 22.4565C80.0342 22.5125 80.232 22.6037 80.4578 22.7298C80.6979 22.842 80.9309 22.9684 81.1567 23.1084C81.3967 23.2347 81.6015 23.3678 81.771 23.508C81.9546 23.6344 82.0746 23.7394 82.131 23.8237C82.1452 23.8517 82.1452 23.8727 82.131 23.8866L82.0888 23.9287C81.4533 24.2652 80.8533 24.6438 80.2884 25.0645C79.7236 25.4714 79.2223 25.8569 78.7847 26.2214C78.2762 26.6562 77.8032 27.0839 77.3656 27.5046C76.3349 28.514 75.6218 29.3904 75.2264 30.1337C74.8309 30.8629 74.6333 31.3887 74.6333 31.7113C74.6333 31.9497 74.7321 32.0688 74.93 32.0688C75.1276 32.0688 75.3746 31.9918 75.6712 31.8374C75.9819 31.6692 76.3277 31.4519 76.7089 31.1853C77.0901 30.9051 77.5068 30.5825 77.9586 30.2177C78.4247 29.8391 78.9047 29.4467 79.3987 29.0401C79.8366 28.6895 80.2602 28.3109 80.6697 27.9043C81.0227 27.5676 81.3897 27.182 81.771 26.7474C82.1522 26.3126 82.477 25.8708 82.7452 25.4221C82.7452 25.4082 82.7522 25.3941 82.7664 25.3802C82.7807 25.3661 82.8019 25.3661 82.8301 25.3802C82.9853 25.4922 83.1619 25.6815 83.3595 25.9481C83.5571 26.2003 83.7407 26.4808 83.9101 26.7893C84.0796 27.0978 84.2208 27.3993 84.3338 27.6939C84.4608 27.9741 84.5244 28.1917 84.5244 28.3458C84.1996 29.0049 83.9456 29.608 83.7619 30.1548C83.5925 30.6875 83.4583 31.1573 83.3595 31.5639C83.2747 31.9707 83.2183 32.3213 83.1901 32.6157C83.1759 32.8962 83.1689 33.1135 83.1689 33.2678ZM98.7572 26.4107C98.5739 26.9575 98.3408 27.5817 98.0584 28.2829C97.7902 28.9838 97.529 29.6709 97.2747 30.3441C97.0205 31.0171 96.8017 31.6271 96.6183 32.1739C96.4486 32.7207 96.3641 33.1135 96.3641 33.3518C96.3641 33.4361 96.4065 33.4782 96.4911 33.4782C96.6465 33.4782 96.8795 33.387 97.1901 33.2046C97.5008 33.0223 97.8536 32.7839 98.249 32.4896C98.6584 32.195 99.0821 31.8726 99.5199 31.522C99.9576 31.1714 100.374 30.8278 100.769 30.4913C101.179 30.1407 101.546 29.8253 101.871 29.5448C102.196 29.2643 102.443 29.0539 102.612 28.9137C102.739 29.0401 102.887 29.2011 103.057 29.3976C103.24 29.5938 103.41 29.7762 103.565 29.9444C103.255 30.2529 102.866 30.6315 102.4 31.0802C101.934 31.5148 101.426 31.9636 100.875 32.4264C100.339 32.8892 99.7739 33.3518 99.1809 33.8147C98.6021 34.2773 98.0302 34.691 97.4653 35.0555C96.9147 35.4202 96.3992 35.7146 95.9192 35.9391C95.4392 36.1633 95.0367 36.2756 94.7119 36.2756C94.5001 36.2756 94.2319 36.1985 93.9072 36.0441C93.5824 35.9039 93.2718 35.7218 92.9751 35.4973C92.6787 35.2869 92.4245 35.0486 92.2127 34.7822C92.0008 34.5156 91.8951 34.2562 91.8951 34.004C92.1069 33.0644 92.3187 32.244 92.5305 31.5431C92.7423 30.8419 92.9399 30.246 93.1236 29.7551C93.307 29.2504 93.4694 28.8436 93.6106 28.5351C93.7518 28.2266 93.8576 27.9952 93.9282 27.8411C93.7588 27.771 93.5964 27.6939 93.4412 27.6097C93.2858 27.5254 93.1306 27.4414 92.9751 27.3572C92.7493 27.5955 92.4951 27.848 92.2127 28.1144C91.9445 28.381 91.669 28.6473 91.3868 28.9137C91.1044 29.1803 90.822 29.4397 90.5395 29.692C90.2571 29.9444 90.0029 30.1759 89.7771 30.3862L88.7604 29.3555C89.1276 29.0049 89.5722 28.5842 90.0947 28.0936C90.6032 27.5886 91.1044 27.0839 91.5984 26.5789C91.2456 26.3688 90.9278 26.1723 90.6453 25.99C90.3631 25.7937 90.1229 25.6186 89.9253 25.4642C89.6853 25.296 89.4734 25.1418 89.2898 25.0016C89.2052 24.9595 89.1628 24.8683 89.1628 24.7281C89.1628 24.5739 89.2264 24.3564 89.3534 24.0759C89.4664 23.7816 89.6147 23.4731 89.7983 23.1505C89.9817 22.814 90.1795 22.4775 90.3913 22.1408C90.6032 21.7905 90.8077 21.4748 91.0056 21.1943C91.2032 20.9141 91.3726 20.6896 91.5138 20.5214C91.669 20.339 91.7681 20.2478 91.8102 20.2478C91.8387 20.2478 91.9302 20.283 92.0857 20.3531C92.2551 20.4232 92.4315 20.5072 92.6151 20.6054C92.7987 20.6896 92.9681 20.7877 93.1236 20.9C93.2788 21.0122 93.3776 21.1103 93.42 21.1943C93.4342 21.2644 93.4482 21.4119 93.4624 21.6361C93.4764 21.8606 93.4906 22.1339 93.5048 22.4565C94.0555 22.737 94.6203 23.0593 95.1992 23.424C95.778 23.7746 96.3074 24.1111 96.7877 24.4337C97.3523 24.7982 97.889 25.1698 98.3972 25.5484C98.5808 25.6607 98.6939 25.8007 98.7363 25.9692C98.7927 26.1374 98.7997 26.2846 98.7572 26.4107ZM114.515 33.2678C114.515 33.3518 114.558 33.3939 114.642 33.3939C114.769 33.3939 114.981 33.3028 115.278 33.1204C115.574 32.9383 115.913 32.7069 116.294 32.4264C116.676 32.1459 117.078 31.8305 117.502 31.4799C117.939 31.1293 118.356 30.7859 118.751 30.4492C119.147 30.1127 119.5 29.8042 119.81 29.5237C120.135 29.2432 120.382 29.0259 120.552 28.8716C120.679 28.9979 120.834 29.1662 121.018 29.3765C121.215 29.5869 121.392 29.7762 121.547 29.9444C121.208 30.2529 120.799 30.6315 120.319 31.0802C119.853 31.5148 119.344 31.9707 118.794 32.4474C118.257 32.9242 117.699 33.4009 117.12 33.8776C116.541 34.3404 115.977 34.7542 115.426 35.1187C114.875 35.4832 114.353 35.7778 113.859 36.002C113.365 36.2406 112.934 36.3598 112.567 36.3598C112.312 36.3598 112.03 36.3105 111.72 36.2124C111.423 36.1143 111.148 35.974 110.894 35.7917C110.639 35.6234 110.427 35.4202 110.258 35.1819C110.089 34.9435 110.004 34.6769 110.004 34.3826C110.004 34.2703 109.997 34.137 109.983 33.9829C109.983 33.8147 109.997 33.6043 110.025 33.3518C110.053 33.0855 110.11 32.77 110.194 32.4053C110.279 32.0267 110.406 31.5639 110.576 31.0171C110.11 31.5079 109.559 32.0198 108.924 32.5525C108.303 33.0855 107.646 33.5902 106.954 34.0669C106.262 34.5439 105.563 34.9715 104.857 35.3501C104.165 35.7426 103.523 36.0372 102.93 36.2334C102.859 36.2614 102.803 36.2756 102.76 36.2756C102.718 36.2756 102.676 36.2756 102.633 36.2756C102.492 36.2756 102.309 36.2054 102.083 36.0652C101.843 35.925 101.609 35.7357 101.384 35.4973C101.158 35.2731 100.967 35.0136 100.812 34.719C100.642 34.4247 100.558 34.1301 100.558 33.8357C100.558 33.7515 100.6 33.471 100.685 32.9943C100.769 32.5176 100.974 31.9145 101.299 31.1853C101.609 30.4422 102.076 29.6149 102.697 28.7033C103.318 27.7779 104.165 26.8314 105.238 25.8639C105.789 25.373 106.382 24.9104 107.018 24.4756C107.554 24.1111 108.168 23.7394 108.86 23.3609C109.552 22.9823 110.279 22.6807 111.042 22.4565C111.07 22.4565 111.091 22.4495 111.105 22.4354C111.134 22.4213 111.169 22.4285 111.211 22.4565C111.381 22.5125 111.578 22.6037 111.804 22.7298C112.044 22.842 112.277 22.9684 112.503 23.1084C112.743 23.2347 112.948 23.3678 113.117 23.508C113.301 23.6344 113.421 23.7394 113.477 23.8237C113.492 23.8517 113.492 23.8727 113.477 23.8866L113.435 23.9287C112.8 24.2652 112.2 24.6438 111.635 25.0645C111.07 25.4714 110.569 25.8569 110.131 26.2214C109.623 26.6562 109.15 27.0839 108.712 27.5046C107.681 28.514 106.968 29.3904 106.573 30.1337C106.178 30.8629 105.98 31.3887 105.98 31.7113C105.98 31.9497 106.078 32.0688 106.276 32.0688C106.474 32.0688 106.721 31.9918 107.018 31.8374C107.328 31.6692 107.674 31.4519 108.055 31.1853C108.437 30.9051 108.853 30.5825 109.305 30.2177C109.771 29.8391 110.251 29.4467 110.745 29.0401C111.183 28.6895 111.607 28.3109 112.016 27.9043C112.369 27.5676 112.736 27.182 113.117 26.7474C113.499 26.3126 113.823 25.8708 114.092 25.4221C114.092 25.4082 114.099 25.3941 114.113 25.3802C114.127 25.3661 114.148 25.3661 114.176 25.3802C114.332 25.4922 114.508 25.6815 114.706 25.9481C114.903 26.2003 115.087 26.4808 115.257 26.7893C115.426 27.0978 115.567 27.3993 115.68 27.6939C115.807 27.9741 115.871 28.1917 115.871 28.3458C115.546 29.0049 115.292 29.608 115.108 30.1548C114.939 30.6875 114.805 31.1573 114.706 31.5639C114.621 31.9707 114.565 32.3213 114.536 32.6157C114.522 32.8962 114.515 33.1135 114.515 33.2678Z" fill="black"/>
<path d="M153.651 21.8878L154.683 19.9539C150.647 19.524 147.884 20.6115 146.858 21.1176C146.344 21.3706 146.652 21.267 146.771 21.243C148.055 20.9853 148.682 21.1356 148.835 21.243C146.175 21.3292 143.598 23.7142 142.643 24.896C142.46 23.9507 143.178 22.8546 143.56 22.425C144.057 21.8878 144.684 21.1356 143.216 22.425C141.749 23.7142 141.534 25.9705 141.611 26.9373L146.312 25.4332C148.147 22.5109 151.969 21.8519 153.651 21.8878Z" fill="url(#paint0_linear_3629_36047)"/>
<path d="M149.296 20.4844C148.784 20.6107 148.385 20.7596 148.025 20.8606C148.664 20.9214 148.797 20.9424 149.296 21.1171L150.835 20.2314C150.689 20.2175 149.809 20.358 149.296 20.4844Z" fill="url(#paint1_linear_3629_36047)"/>
<path d="M163.488 21.3711L152.119 27.3693C153.408 34.9786 161.071 40.8797 164.742 42.8792C163.524 40.3427 162.861 35.0813 162.682 32.7678C158.743 31.1225 156.804 27.3408 156.326 25.6556L165.189 27.3693C166.12 25.1071 164.443 22.4279 163.488 21.3711Z" fill="url(#paint2_linear_3629_36047)"/>
<path d="M163.022 39.0827C157.48 36.9571 153.956 31.0278 152.631 27.9492C154.17 34.8317 160.414 39.4201 163.664 41.36C163.254 40.5502 163.108 39.5886 163.022 39.0827Z" fill="url(#paint3_linear_3629_36047)"/>
<path d="M139.675 33.138C139.418 32.8848 139.46 32.9992 138.799 31.6954C138.2 32.1845 137.618 32.2152 136.539 32.1173C135.46 32.0194 133.992 30.4456 133.392 29.6712C132.681 28.652 131.027 25.9041 131.386 25.5129C131.746 25.1213 134.385 26.2768 135.546 26.4397C135.77 26.5213 136.269 26.1978 136.089 25.5129C135.565 25.309 134.404 24.4364 133.954 22.5774C133.505 20.7184 133.093 19.4383 132.943 19.0307C132.83 18.5823 132.876 17.7832 133.954 18.1745C135.003 18.623 137.146 19.5443 137.325 19.6422C137.505 19.7401 137.55 18.7046 137.55 18.1745C136.689 18.1338 135.385 16.3253 135.313 15.9315C134.852 13.4012 135.185 13.4012 135.698 14.0338C136.596 14.6663 136.981 14.7929 137.55 13.8939C137.775 12.3039 138.899 8.75709 141.596 7.28944C142.049 7.06197 143.156 6.62304 144.176 6.56256C144.178 6.56024 144.179 6.55792 144.18 6.5556H144.405C144.33 6.5556 144.253 6.55801 144.176 6.56256C143.277 7.99166 141.778 10.8116 142.944 10.714C143.244 10.9178 144.015 10.7514 144.644 7.91393C145.274 5.07648 149.125 5.50538 151.148 6.18868C150.473 7.08556 149.259 8.94225 149.125 9.36857C148.98 9.83145 148.563 10.18 149.125 11.5034C149.387 11.5849 150.23 11.3333 150.923 8.75704C151.478 6.69574 154.172 6.18868 154.744 6.18868C155.643 6.3925 157.665 6.94693 158.565 7.53399C157.291 7.94167 154.744 8.97719 154.744 9.85778C154.744 10.7384 155.173 10.7841 155.498 10.7841C155.758 10.7841 156.384 10.7628 158.003 9.00165C159.621 7.24047 162.573 9.08318 163.846 10.2247C164.858 10.9585 166.903 12.4996 166.993 12.7931C167.083 13.0866 166.431 13.6492 166.094 13.8939C165.157 14.3015 162.742 14.8215 162.383 14.9194C162.023 15.0172 158.703 14.5235 157.318 14.3604C154.283 14.1158 148.563 14.6032 146.316 16.4622C144.593 17.8483 140.944 21.8437 140.135 26.7358C139.91 28.2035 139.301 30.5012 140.83 34.0234L139.675 33.138Z" fill="url(#paint4_linear_3629_36047)"/>
<path d="M143.911 28.7128C143.349 27.8024 144.144 26.1526 144.612 25.4413C148.541 22.8242 150.598 25.8206 151.861 27.2903C151.268 26.8372 149.619 27.0366 149.242 28.0331C148.821 29.1476 149.383 30.2772 149.944 30.8463L149.242 32.5528C147.11 31.7564 145.08 34.2123 144.331 35.5397L142.367 35.2554L143.911 32.1261C144.893 30.8463 144.612 29.8505 143.911 28.7128Z" fill="url(#paint5_linear_3629_36047)"/>
<path d="M158.241 21.8754L163.922 20.0714C162.367 18.0509 158.988 16.9044 157.494 16.5837C151.753 15.4291 147.926 18.1873 146.73 19.7106C152.112 16.0545 156.647 19.6304 158.241 21.8754Z" fill="url(#paint6_linear_3629_36047)"/>
<path d="M161.869 20.4855C161.253 18.9673 158.79 17.3646 157.764 16.8164C161.458 17.9299 163.152 19.389 163.537 19.9794L161.869 20.4855Z" fill="url(#paint7_linear_3629_36047)"/>
<path d="M161.227 19.0938C161.006 20.4095 159.175 21.2445 158.533 21.624L161.869 20.4854L161.227 19.0938Z" fill="url(#paint8_linear_3629_36047)"/>
<path d="M147.519 34.0865C145.226 33.638 140.906 35.6932 139.033 36.7771C140.501 37.0461 140.868 37.786 140.868 38.1225C145.088 37.4946 148.36 38.7579 149.469 39.468C146.9 39.3782 143.659 39.9538 142.359 40.2527C149.515 40.6114 155.279 43.8403 157.267 45.4099C156.716 44.0645 155.585 42.906 155.088 42.4951C156.097 42.6743 158.031 43.8403 158.872 44.401L159.56 43.0555C156.349 38.0328 151.036 36.2539 148.781 35.9924C146.304 35.7231 146.908 34.6096 147.519 34.0865Z" fill="url(#paint9_linear_3629_36047)"/>
<path d="M149.167 38.965C145.78 36.6372 141.854 36.6456 140.314 36.9409C140.93 37.2443 140.999 37.7421 140.956 37.9529C144.343 37.2446 147.841 38.3325 149.167 38.965Z" fill="url(#paint10_linear_3629_36047)"/>
<path d="M150.322 40.7786C148.224 39.9745 144.421 40.0121 142.625 40.2229C147.551 40.1217 152.888 42.5424 154.813 43.7653C154.342 43.1328 152.504 41.6145 150.322 40.7786Z" fill="url(#paint11_linear_3629_36047)"/>
<path d="M142.753 26.3056L141.855 26.6852C141.855 25.167 142.283 24.45 142.497 24.2812C142.394 25.2936 142.625 26.0527 142.753 26.3056Z" fill="url(#paint12_linear_3629_36047)"/>
<path d="M165.1 26.9431C165.314 26.2955 165.43 24.5384 164.178 22.6914C164.484 23.4326 165.096 25.3205 165.1 26.9431Z" fill="url(#paint13_linear_3629_36047)"/>
</g>
</g>
<defs>
<linearGradient id="paint0_linear_3629_36047" x1="141.598" y1="23.3964" x2="154.683" y2="23.3964" gradientUnits="userSpaceOnUse">
<stop stop-color="#9BC058"/>
<stop offset="1" stop-color="#23BE9D"/>
</linearGradient>
<linearGradient id="paint1_linear_3629_36047" x1="148.025" y1="20.6738" x2="150.835" y2="20.6738" gradientUnits="userSpaceOnUse">
<stop stop-color="#9BC058"/>
<stop offset="1" stop-color="#23BE9D"/>
</linearGradient>
<linearGradient id="paint2_linear_3629_36047" x1="152.119" y1="32.1251" x2="165.461" y2="32.1251" gradientUnits="userSpaceOnUse">
<stop stop-color="#9BC058"/>
<stop offset="1" stop-color="#23BE9D"/>
</linearGradient>
<linearGradient id="paint3_linear_3629_36047" x1="152.631" y1="34.6546" x2="163.664" y2="34.6546" gradientUnits="userSpaceOnUse">
<stop stop-color="#9BC058"/>
<stop offset="1" stop-color="#23BE9D"/>
</linearGradient>
<linearGradient id="paint4_linear_3629_36047" x1="138" y1="6" x2="161" y2="34" gradientUnits="userSpaceOnUse">
<stop stop-color="#96C05B"/>
<stop offset="1" stop-color="#7FC068"/>
</linearGradient>
<linearGradient id="paint5_linear_3629_36047" x1="142.367" y1="29.973" x2="151.861" y2="29.973" gradientUnits="userSpaceOnUse">
<stop stop-color="#9BC058"/>
<stop offset="1" stop-color="#23BE9D"/>
</linearGradient>
<linearGradient id="paint6_linear_3629_36047" x1="146.73" y1="19.092" x2="163.922" y2="19.092" gradientUnits="userSpaceOnUse">
<stop stop-color="#9BC058"/>
<stop offset="1" stop-color="#23BE9D"/>
</linearGradient>
<linearGradient id="paint7_linear_3629_36047" x1="157.764" y1="18.651" x2="163.537" y2="18.651" gradientUnits="userSpaceOnUse">
<stop stop-color="#9BC058"/>
<stop offset="1" stop-color="#23BE9D"/>
</linearGradient>
<linearGradient id="paint8_linear_3629_36047" x1="158.533" y1="20.3589" x2="161.869" y2="20.3589" gradientUnits="userSpaceOnUse">
<stop stop-color="#9BC058"/>
<stop offset="1" stop-color="#23BE9D"/>
</linearGradient>
<linearGradient id="paint9_linear_3629_36047" x1="139.033" y1="39.7167" x2="159.56" y2="39.7167" gradientUnits="userSpaceOnUse">
<stop stop-color="#9BC058"/>
<stop offset="1" stop-color="#23BE9D"/>
</linearGradient>
<linearGradient id="paint10_linear_3629_36047" x1="140.314" y1="37.8849" x2="149.167" y2="37.8849" gradientUnits="userSpaceOnUse">
<stop stop-color="#9BC058"/>
<stop offset="1" stop-color="#23BE9D"/>
</linearGradient>
<linearGradient id="paint11_linear_3629_36047" x1="142.625" y1="41.9295" x2="154.813" y2="41.9295" gradientUnits="userSpaceOnUse">
<stop stop-color="#9BC058"/>
<stop offset="1" stop-color="#23BE9D"/>
</linearGradient>
<linearGradient id="paint12_linear_3629_36047" x1="141.855" y1="25.4832" x2="142.753" y2="25.4832" gradientUnits="userSpaceOnUse">
<stop stop-color="#9BC058"/>
<stop offset="1" stop-color="#23BE9D"/>
</linearGradient>
<linearGradient id="paint13_linear_3629_36047" x1="164.178" y1="24.8173" x2="165.234" y2="24.8173" gradientUnits="userSpaceOnUse">
<stop stop-color="#9BC058"/>
<stop offset="1" stop-color="#23BE9D"/>
</linearGradient>
<clipPath id="clip0_3629_36047">
<rect width="167" height="49" fill="white"/>
</clipPath>
</defs>
</svg>
