<svg width="323" height="302" viewBox="0 0 323 302" fill="none" xmlns="http://www.w3.org/2000/svg">
<path fill-rule="evenodd" clip-rule="evenodd" d="M239.996 0.579245C242.676 0.965117 253.288 2.36371 263.578 3.68731C275.443 5.21323 282.847 6.3353 283.815 6.75359C285.965 7.68351 287.551 10.2694 287.551 12.8463C287.551 14.6069 285.84 29.329 285.408 31.2924C285.245 32.0321 285.497 32.1571 288.046 32.5988C299.492 34.5825 309.515 41.1466 315.815 50.784C318.404 54.7458 319.144 56.2307 320.619 60.4253C323.927 69.8276 323.881 72.6194 319.895 104.876C311.933 169.306 305.93 217.038 305.77 217.199C305.673 217.295 288.559 215.227 267.739 212.603C246.919 209.978 229.774 207.941 229.64 208.076C229.506 208.21 227.927 219.976 226.13 234.222C218.617 293.822 217.73 300.764 217.575 301.23C217.486 301.498 217.128 301.718 216.781 301.718C216.27 301.718 216.194 301.439 216.383 300.253C216.587 298.973 218.662 282.532 226.195 222.522C227.2 214.515 227.934 207.875 227.826 207.767C227.588 207.529 208.797 205.127 208.635 205.314C208.573 205.386 206.831 218.802 204.764 235.128C195.27 310.126 196.43 301.718 195.579 301.718C194.966 301.718 195.069 300.455 196.789 286.974C197.823 278.865 200.161 260.455 201.984 246.063C203.807 231.671 205.725 216.558 206.246 212.478C206.767 208.398 207.163 205.04 207.126 205.017C206.951 204.905 191.093 202.955 191.012 203.036C190.9 203.149 187.912 226.425 182.707 267.739C180.555 284.817 178.693 299.448 178.567 300.253C178.298 301.987 177.239 302.307 177.239 300.654C177.239 300.069 178.204 292.029 179.383 282.786C181.163 268.834 187.337 220.133 189.004 206.9C189.282 204.686 189.319 203.155 189.099 202.96C188.9 202.785 182.072 201.811 173.926 200.796C132.219 195.6 86.366 189.707 86.1778 189.518C86.0604 189.401 86.3524 186.207 86.8264 182.422C87.3004 178.636 87.6091 175.46 87.5128 175.364C87.4165 175.267 77.5271 173.951 65.5363 172.439C53.5454 170.926 35.4765 168.639 25.3832 167.356C15.2899 166.073 6.89024 165.022 6.71679 165.022C6.40612 165.022 6.73826 159.796 7.15768 158.09C7.31399 157.453 7.65892 157.211 8.41083 157.211C9.17443 157.211 52.5982 162.605 81.5248 166.293C82.0998 166.366 82.3485 166.08 82.5484 165.115C83.1573 162.176 86.4612 159.164 89.0739 159.164C89.5421 159.164 89.9252 159.12 89.9252 159.066C89.9252 159.012 90.3638 155.647 90.8997 151.587C91.4357 147.527 91.8742 144.056 91.8742 143.873C91.8742 143.691 74.5966 143.542 53.4795 143.542H15.0849L15.0903 112.59L15.0958 81.6381L21.9117 76.8077L28.7277 71.9773V58.7444V45.5115H46.88H65.0323L69.886 42.1601L74.7393 38.8083L79.4991 42.1659L84.2588 45.5236L94.9431 45.4197C103.982 45.3322 105.672 45.226 105.915 44.7303C106.074 44.4081 107.093 42.2991 108.18 40.0436C114.685 26.5526 127.359 17.5338 142.25 15.7993C146.856 15.2627 149.649 15.4248 160.088 16.8335C184.028 20.0638 223.856 25.0559 224.074 24.8532C224.214 24.7232 224.892 20.2228 225.58 14.8526C226.97 4.00952 227.348 2.80309 229.878 1.12525C231.89 -0.208508 233.805 -0.31201 239.996 0.579245ZM234.221 1.79115C234.297 2.01807 238.429 7.69366 243.405 14.4027L252.45 26.6014L264.836 28.4651C275.841 30.1211 277.3 30.4242 277.932 31.183C281.871 35.917 282.718 36.8774 282.971 36.8965C283.963 36.9731 282.893 34.8164 280.563 32.0442C277.865 28.8346 277.861 28.8315 275.593 28.5667C272.68 28.2261 253.118 25.2145 253.053 25.0966C252.838 24.7095 246.572 16.1356 241.64 9.48242C237.335 3.67364 235.414 1.37833 234.859 1.37833C234.433 1.37833 234.146 1.56424 234.221 1.79115ZM246.622 3.14444C246.622 3.65138 258.456 18.9535 258.849 18.955C259.092 18.9562 264.534 19.7381 270.943 20.6934C281.806 22.3119 282.667 22.4986 283.658 23.4496C284.563 24.319 284.756 24.3764 284.962 23.839C285.25 23.086 284.235 21.407 283.326 21.1312C282.676 20.9348 281.676 20.7774 266.895 18.5516C261.909 17.8009 258.803 17.1608 258.629 16.8487C257.978 15.6829 249.215 4.24855 248.494 3.62404C247.753 2.98196 246.622 2.69256 246.622 3.14444ZM259.096 4.73323C259.096 5.36437 264.046 11.1255 264.733 11.2942C265.436 11.4665 283.427 14.1476 285.397 14.3738C286.542 14.505 286.665 13.1716 285.53 12.9334C285.033 12.8291 280.242 12.1039 274.882 11.3223C269.523 10.5404 264.916 9.71754 264.646 9.49336C264.375 9.26957 263.516 8.21506 262.736 7.15079C261.956 6.08651 260.95 5.06637 260.499 4.88398C259.491 4.47546 259.096 4.43289 259.096 4.73323ZM227.522 10.5135C227.522 11.0267 228.334 12.551 229.325 13.9008C230.317 15.2506 232.63 18.4774 234.465 21.0715C236.3 23.6656 239.113 27.5458 240.716 29.6938C242.319 31.8419 243.646 33.626 243.665 33.6588C243.684 33.6912 248.698 34.4403 254.808 35.3233C260.918 36.2064 266.466 37.0184 267.137 37.1281C268.063 37.2793 268.941 38.0272 270.787 40.2354C273.014 42.9014 274.411 43.966 274.959 43.4161C275.174 43.2013 270.73 37.6749 269.373 36.4685C268.84 35.9955 265.422 35.3683 256.602 34.1251L244.559 32.4277L239.91 25.9835C237.354 22.4392 233.664 17.2983 231.711 14.5597C229.757 11.8211 228.016 9.58006 227.841 9.58006C227.666 9.58006 227.522 9.99991 227.522 10.5135ZM139.772 17.574C126.417 19.9174 114.634 29.1349 108.789 41.8105C108.061 43.3884 107.466 44.8663 107.466 45.0951C107.466 45.3459 108.445 45.5115 109.928 45.5115H112.39L113.533 43.0861C117.809 34.0181 125.922 26.294 134.758 22.8801C141.717 20.1911 150.864 19.7815 157.944 21.842C165.114 23.9288 172.512 28.61 176.802 33.7752C179.352 36.8457 179.736 37.5558 179 37.8389C178.671 37.9655 178.1 37.6175 177.624 36.9988C177.177 36.4181 175.548 34.6446 174.004 33.0577C163.438 22.1967 147.782 18.9453 133.995 24.7494C126.369 27.9598 119.235 34.8722 115.135 43.0228C114.581 44.1246 114.237 45.135 114.37 45.2685C114.503 45.4021 115.986 45.5115 117.666 45.5115H120.719V58.767V72.0222L127.54 76.8226L134.362 81.6229V112.582V143.542H116.914H99.4654L98.2263 153.784C97.5445 159.417 97.0663 164.106 97.1637 164.203C97.2612 164.301 113.756 166.451 133.821 168.981C167.578 173.238 170.37 173.536 171.226 172.974C171.735 172.64 172.901 172.145 173.816 171.874L175.481 171.381L178.675 146.233C189.587 60.3097 189.429 61.6474 189.192 56.8377C188.223 37.1484 173.739 20.8656 154.272 17.5795C150.194 16.8909 143.678 16.8886 139.772 17.574ZM167.791 20.6989C180.201 27.3751 188.209 38.7759 190.294 52.7368C191.028 57.65 191.03 60.3464 190.306 65.8982C189.436 72.5651 183.031 123.299 179.959 147.838C178.468 159.76 177.162 169.996 177.059 170.585C176.895 171.515 177.071 171.76 178.396 172.437C182.679 174.626 183.788 180.045 180.679 183.592C180.016 184.348 179.541 185.033 179.623 185.113C179.706 185.193 191.788 186.777 206.474 188.632C294.762 199.787 306.342 201.195 306.484 200.79C306.566 200.558 309.174 179.893 312.28 154.868C322.747 70.533 321.958 77.4049 321.694 72.8506C320.69 55.5367 309.578 40.6841 293.806 35.5753C291.528 34.8379 288.732 34.1103 287.593 33.9587C285.246 33.6467 284.838 33.9513 284.828 36.0213C284.809 40.0264 282.983 43.4536 280.261 44.5933C278.452 45.3505 276.582 45.2619 267.027 43.9656C243.224 40.7365 234.387 39.6523 234.148 39.9316C234.004 40.1007 232.793 49.0265 231.458 59.7669C226.49 99.7253 225.548 106.591 224.846 108.001C224.41 108.874 223.538 109.693 222.432 110.269C218.51 112.309 214.272 109.712 214.273 105.267C214.273 104.3 215.499 94.0189 216.999 82.4193C221.226 49.7217 224.089 26.7092 223.948 26.5756C223.877 26.5092 211.979 24.9318 197.508 23.0711C183.037 21.2101 170.232 19.5436 169.053 19.3682C164.464 18.6844 164.323 18.8332 167.791 20.6989ZM18.4773 23.5691C21.7293 27.402 28.0455 35.2382 28.4131 35.8959C28.6462 36.313 26.6914 38.1123 20.7638 42.9365C16.3848 46.5008 12.6296 49.417 12.4187 49.417C11.8749 49.417 -0.150969 34.4875 0.0014399 34.0013C0.145664 33.5404 15.5269 20.9063 15.9436 20.9063C16.0945 20.9063 17.2346 22.1045 18.4773 23.5691ZM225.926 25.0454C226.054 25.2813 228.261 28.4011 230.83 31.9778C234.576 37.1914 235.683 38.4814 236.411 38.4814C237.427 38.4814 238.024 39.4352 229.861 28.0125C226.68 23.5601 226.125 22.9559 225.926 23.7234C225.798 24.2147 225.798 24.8095 225.926 25.0454ZM8.43424 28.5987C4.78928 31.5494 1.85646 34.145 1.91687 34.3673C1.97729 34.5895 4.3831 37.7132 7.26289 41.3087C11.8324 47.0139 12.5769 47.7806 13.1098 47.3291C13.4458 47.0448 16.5271 44.5565 19.9573 41.8C23.3875 39.043 26.3526 36.6497 26.5468 36.4806C27.0605 36.033 16.2656 22.7712 15.5967 23.0282C15.302 23.1414 12.0788 25.6484 8.43424 28.5987ZM20.3319 29.8645C20.4668 30.0832 19.5297 32.9835 18.2492 36.3095C15.5639 43.2857 15.0354 44.4382 14.5037 44.4753C14.0067 44.5105 4.98142 34.1435 4.96388 33.517C4.94828 32.9734 5.83665 32.7121 13.3308 31.0569C16.3322 30.3937 19.0803 29.7649 19.4373 29.6591C19.7944 29.5532 20.197 29.6458 20.3319 29.8645ZM11.291 32.9359L6.91248 33.99L10.4857 38.1947C12.451 40.5072 14.1887 42.2647 14.347 42.1003C14.637 41.7988 18.593 32.0212 18.593 31.606C18.593 31.3018 16.4858 31.6857 11.291 32.9359ZM225.478 40.1225C226.312 41.2606 227.932 43.5899 229.078 45.2986C230.972 48.1223 231.196 48.3293 231.534 47.5701C231.849 46.8636 231.344 45.9196 228.252 41.4415C224.91 36.5985 224.572 36.229 224.28 37.1004C224.022 37.8737 224.247 38.4423 225.478 40.1225ZM70.533 43.438C69.1929 44.3851 68.0968 45.2248 68.0968 45.3033C68.0968 45.3822 71.1201 45.4673 74.8153 45.4931C79.1775 45.5232 81.3989 45.4064 81.1495 45.1592C80.9382 44.9502 79.4495 43.8223 77.8416 42.653C74.514 40.2331 75.1646 40.1632 70.533 43.438ZM29.991 67.6757L30.0919 88.6682L36.5235 91.9911C64.4238 106.405 74.4637 111.512 74.8546 111.49C75.1041 111.476 85.2185 106.336 97.3313 100.067L119.355 88.6682L119.456 68.1639C119.512 56.8865 119.474 47.44 119.371 47.1713C119.223 46.7847 109.896 46.6831 74.5374 46.6831H29.8904L29.991 67.6757ZM225.005 52.3837C227.574 55.7453 227.296 55.5148 229.22 55.8765C230.535 56.1237 230.701 56.0718 230.581 55.4484C230.504 55.0462 229.938 54.6064 229.276 54.4334C228.426 54.2108 227.417 53.2082 225.573 50.7528C223.257 47.667 223.029 47.4678 222.913 48.4301C222.818 49.2206 223.338 50.204 225.005 52.3837ZM221.258 62.8585C221.499 63.1479 223.013 63.5814 224.624 63.8216C228.557 64.4079 229.471 64.3809 229.471 63.6799C229.471 63.0655 229.163 62.9687 225.184 62.3348C223.315 62.0368 222.501 61.7103 222.082 61.0916L221.514 60.2523L221.168 61.292C220.941 61.9743 220.972 62.5129 221.258 62.8585ZM219.895 70.9415C219.469 71.6309 220.281 71.905 224.308 72.4327C227.997 72.9162 228.18 72.8877 228.429 71.7863C228.466 71.6199 227.094 71.2887 225.379 71.0501C221.099 70.4557 220.205 70.4377 219.895 70.9415ZM120.719 80.8855C120.719 86.185 120.83 87.7195 121.206 87.6195C122.279 87.3344 132.021 82.199 132.003 81.9283C131.981 81.621 121.509 74.1246 121.011 74.0601C120.85 74.0394 120.719 77.1108 120.719 80.8855ZM22.749 77.9278C19.8365 79.9685 17.4467 81.7686 17.4385 81.9283C17.4252 82.1849 28.021 87.6918 28.5277 87.6918C28.6376 87.6918 28.7277 84.6013 28.7277 80.8246C28.7277 77.0475 28.5741 74.0156 28.3862 74.0875C28.1983 74.1589 25.6619 75.8872 22.749 77.9278ZM218.947 79.0995C218.947 79.5291 219.078 79.8869 219.239 79.8943C219.4 79.9021 221.198 80.1462 223.235 80.4368C227.099 80.9886 227.522 80.9547 227.522 80.0931C227.522 79.7318 226.471 79.4291 224.112 79.1116C222.236 78.8589 220.526 78.591 220.311 78.5164C219.375 78.1891 218.947 78.3715 218.947 79.0995ZM110.648 94.7715C98.4999 101.028 85.4469 107.751 81.6406 109.71L74.7198 113.273L68.5825 110.102C44.9068 97.8686 16.671 83.3957 16.4792 83.3957C16.3529 83.3957 16.2944 96.6004 16.3494 112.739L16.4492 142.084L18.4956 142.058C19.6213 142.043 45.8883 142.02 76.8672 142.006L133.192 141.979V112.688C133.192 96.577 133.089 83.3957 132.964 83.3957C132.837 83.3957 122.795 88.5147 110.648 94.7715ZM217.778 87.4547C217.778 88.1812 218.361 88.3679 221.649 88.6924C223.482 88.8732 224.758 89.2251 225.392 89.7247L226.353 90.4823V89.27C226.353 87.8851 226.22 87.8082 223.04 87.3458C219.308 86.8033 217.778 86.8349 217.778 87.4547ZM216.608 96.0701C216.608 96.6707 217.451 97.0652 218.734 97.0652C219.579 97.0652 221.357 98.7087 223.489 101.459C224.5 102.763 224.794 102.807 224.794 101.653C224.794 101.168 223.901 99.6796 222.809 98.3439C221.212 96.3903 220.545 95.8689 219.398 95.6772C218.614 95.5463 217.797 95.3893 217.583 95.3284C217.013 95.1667 216.608 95.4752 216.608 96.0701ZM218.245 103.392C217.44 104.199 217.689 105.972 218.699 106.635C220.708 107.954 223.058 105.451 221.467 103.689C220.694 102.835 218.961 102.675 218.245 103.392ZM93.4209 143.639C93.4143 143.693 92.7267 149.009 91.8933 155.453C91.0599 161.896 90.4296 167.22 90.4932 167.284C90.5567 167.348 96.0244 168.093 102.643 168.942C119.736 171.132 167.538 177.13 167.897 177.13C168.062 177.13 168.374 176.623 168.589 176.004L168.981 174.878L164.047 174.243C155.786 173.178 113.27 167.824 104.348 166.724C99.7383 166.155 95.8314 165.571 95.6654 165.425C95.4186 165.208 97.1563 149.399 97.9316 144.811L98.1464 143.542H95.7897C94.4936 143.542 93.4279 143.585 93.4209 143.639ZM8.31885 159.848C7.98441 161.875 8.00934 163.851 8.36912 163.851C8.534 163.851 23.3123 165.7 41.2092 167.96C59.1058 170.22 90.5879 174.179 111.169 176.759C131.75 179.339 154.782 182.246 162.351 183.219L176.113 184.989L177.774 184.184C183.459 181.426 181.421 173.224 175.051 173.224C173.302 173.224 172.77 173.408 171.641 174.401C170.905 175.048 170.024 176.278 169.682 177.135C169.339 177.991 168.95 178.692 168.817 178.692C168.684 178.692 158.201 177.379 145.524 175.775C132.846 174.171 102.827 170.38 78.8161 167.351C41.76 162.675 9.70104 158.589 8.80179 158.427C8.66887 158.402 8.45177 159.042 8.31885 159.848ZM86.2908 161.694C85.3467 162.313 83.6886 165.124 83.6886 166.104C83.6886 166.349 84.3461 166.653 85.1503 166.779C85.954 166.905 87.0844 167.082 87.6621 167.173C88.9044 167.368 88.9995 167.145 89.3702 163.181L89.6337 160.362L88.4647 160.698C87.8215 160.883 86.8436 161.331 86.2908 161.694ZM88.989 177.032C88.3567 181.145 87.5705 188.179 87.7256 188.335C87.8231 188.433 100.329 190.082 115.517 192C130.705 193.918 149.515 196.294 157.315 197.279C167.203 198.527 171.578 198.942 171.76 198.647C172.124 198.055 173.469 186.502 173.204 186.236C173.085 186.117 155.921 183.865 135.062 181.231C114.203 178.597 95.9086 176.27 94.4079 176.058C89.3472 175.345 89.2455 175.363 88.989 177.032ZM174.902 186.406C174.903 186.567 174.537 189.481 174.09 192.882C173.642 196.284 173.34 199.13 173.418 199.208C173.497 199.287 198.2 202.44 228.314 206.215C258.429 209.99 287.868 213.699 293.736 214.456C299.603 215.214 304.461 215.776 304.532 215.705C304.706 215.53 306.322 202.825 306.179 202.746C306.117 202.712 287.297 200.335 264.358 197.465C233.266 193.575 181.295 186.981 175.193 186.152C175.032 186.131 174.901 186.244 174.902 186.406ZM156.343 217.679C156.613 218.117 159.653 226.589 161.685 232.567C162.802 235.854 163.08 237.113 162.737 237.325C162.125 237.704 146.072 243.425 145.153 243.592C144.555 243.7 143.907 242.206 140.974 233.964C139.065 228.599 137.629 224.095 137.784 223.957C138.033 223.734 153.133 218.232 155.28 217.581C155.745 217.44 156.223 217.485 156.343 217.679ZM143.912 223.098C141.768 223.871 139.861 224.638 139.674 224.805C139.355 225.089 144.648 240.977 145.312 241.725C145.488 241.923 149.097 240.839 153.652 239.221C160.227 236.884 161.637 236.255 161.432 235.747C161.295 235.407 159.968 231.701 158.484 227.512C157 223.323 155.709 219.681 155.614 219.419C155.492 219.077 154.356 219.333 151.626 220.317C149.527 221.074 146.056 222.326 143.912 223.098ZM155.611 222.833C155.891 223.289 153.52 237.331 153.027 238.129C152.835 238.441 151.625 237.57 149.368 235.495C147.514 233.789 144.914 231.399 143.59 230.182C141.953 228.678 141.308 227.841 141.575 227.564C141.79 227.34 144.597 226.204 147.812 225.04C155.34 222.313 155.297 222.325 155.611 222.833ZM148.673 226.201C145.933 227.201 143.74 228.141 143.801 228.291C143.862 228.441 145.753 230.284 148.004 232.386L152.097 236.208L153.145 230.786C154.32 224.715 154.36 224.388 153.949 224.386C153.788 224.385 151.414 225.202 148.673 226.201Z" fill="url(#paint0_linear_3762_17886)"/>
<defs>
<linearGradient id="paint0_linear_3762_17886" x1="161.5" y1="0" x2="161.5" y2="302" gradientUnits="userSpaceOnUse">
<stop stop-color="#97C05A"/>
<stop offset="1" stop-color="#2CBE98"/>
</linearGradient>
</defs>
</svg>
